<?xml version="1.0" encoding="utf-8"?>
<!-- Generator: Adobe Illustrator 23.1.0, SVG Export Plug-In . SVG Version: 6.00 Build 0)  -->
<svg version="1.1" id="Layer_1" xmlns="http://www.w3.org/2000/svg" x="0px"
     y="0px"
     viewBox="0 0 1440 779" style="enable-background:new 0 0 1440 779;"
     xml:space="preserve">
<style type="text/css">
	.st0{opacity:0.1;}
	.st1{display:none;fill:#FFFFFF;}
	.st2{opacity:0.11;}
	.st3{fill:#BCBEC0;}
	.st4{fill:#E6E7E8;}
	.st5{fill:#808285;}
</style>
<g class="st0">
	<rect class="st1" width="3000" height="1500"/>
	<g class="st2">
		<g>
			<polygon class="st3" points="1393.6,0 1322.6,122.7 1249.7,0 1241,0 1322.7,137.6 1402.3,0 			"/>
		</g>
		<g>
			<polygon class="st3" points="1668.2,0 1492.8,263.2 1328.9,130.4 1517,0 1503.8,0 1316.4,130 1494.5,274.3 1677.3,0 			"/>
		</g>
		<g>
			<polygon class="st3" points="1503.8,0 1334.3,117.5 1402.3,0 1393.6,0 1319.4,128.3 1324.8,133.3 1517,0 			"/>
		</g>
		<g>
			<polygon class="st3" points="843.7,0 847.9,32.8 840.3,0 832.5,0 857.5,108.3 864.9,106.9 851.2,0 			"/>
		</g>
		<g>
			<polygon class="st3" points="926.4,0 871.4,84.8 894.9,0 887,0 857.6,106.4 864.4,109.5 935.4,0 			"/>
		</g>
		<g>
			<polygon class="st3" points="887,0 862.6,88.4 851.2,0 843.7,0 857.5,107.9 864.8,108.4 894.9,0 			"/>
		</g>
		<g>
			<polygon class="st3" points="1206.5,0 1579.8,203.4 1324.4,126.8 1159.5,0 1147.2,0 1318.9,132 1318.9,133 1612.3,221 
				1615.2,214.1 1222.2,0 			"/>
		</g>
		<g>
			<polygon class="st3" points="1325.5,127.6 1249.7,0 1241,0 1309.4,115.2 1159.5,0 1147.2,0 1319.8,132.7 1326.4,143.9 
				1326.4,128.3 			"/>
		</g>
		<g>
			<path class="st3" d="M1436,507.7l-6.8-2.9l61.2-238.8l132.5-56.9L1436,507.7z M1496.8,271.5l-54.3,211.7l161.2-257.6
				L1496.8,271.5z"/>
		</g>
		<g>
			<path class="st3" d="M1493,273.1l-172.7-140l3.5-6.5l300.6,90.1L1493,273.1z M1339.8,139.3l154.4,125.1l108.1-46.4L1339.8,139.3z
				"/>
		</g>
		<g>
			<path class="st3" d="M1607.3,695.3l-179.9-189.8l337.4-300.9l4.2,3.4l1.9,0.6L1607.3,695.3z M1438.2,506l165.9,175.1l155-461.4
				L1438.2,506z"/>
		</g>
		<g>
			<path class="st3" d="M1426.1,516.8l64.4-251.2l290.1-65L1426.1,516.8z M1496.7,271.9l-57.1,222.8L1754,214.2L1496.7,271.9z"/>
		</g>
		<g>
			<polygon class="st3" points="726.5,0 805.3,65.7 706.6,0 693.1,0 693.3,0.2 859.1,110.5 859.7,110.9 860.3,111.1 863.6,104.5 
				738.3,0 			"/>
		</g>
		<g>
			<polygon class="st3" points="832.5,0 855,97.3 738.3,0 726.5,0 867.4,117.5 840.3,0 			"/>
		</g>
		<g>
			<polygon class="st3" points="1017.3,0 1101.6,596.5 702.1,0 693,0 1104.5,614.4 1111.4,611.8 1024.9,0 			"/>
		</g>
		<g>
			<polygon class="st3" points="926.4,0 860.1,102.2 706.6,0 693,0 862.3,112.7 935.4,0 			"/>
		</g>
		<g>
			<path class="st3" d="M1109.3,615.7l-4-6.4l511.8-399.7v9l-0.8,1.1l-200,248.2l-0.8,0.4L1109.3,615.7z M1589.9,240.4l-452.4,353.3
				l274-131.9L1589.9,240.4z"/>
		</g>
		<g>
			<polygon class="st3" points="1206.5,0 1606.5,217.9 1110.5,605.3 1024.9,0 1017.3,0 1104.8,619.3 1620.2,216.8 1222.2,0 			"/>
		</g>
		<g>
			<path class="st3" d="M1714.1,685.6l-286.9-178.9l1.2-1.5l-24-51.7l313.8,225.9L1714.1,685.6z M1435.8,503.1l185.9,116
				l-198.4-142.8L1435.8,503.1z"/>
		</g>
		<g>
			<path class="st3" d="M1432.3,513.6l-22.8-49.3L1610.4,215l6.2,4.4L1432.3,513.6z M1418.3,465.4l15,32.4L1576.6,269L1418.3,465.4z
				"/>
		</g>
		<g>
			<path class="st3" d="M1604.9,692.8l-1.9-2l-172.9-182.5l4.7-5.8l293.3,183l-121.4,6.4L1604.9,692.8z M1455.8,524.5l151.5,159.9
				l96.7-5.1L1455.8,524.5z"/>
		</g>
		<g>
			<polygon class="st3" points="117,0 29.3,35.6 21.4,0 13.7,0 23.9,45.9 137,0 			"/>
		</g>
		<g>
			<polygon class="st3" points="367.1,0 351.2,31.6 41.4,36.7 107,0 91.6,0 24.8,37.5 26.7,44.5 355.9,39 375.5,0 			"/>
		</g>
		<g>
			<polygon class="st3" points="117,0 80.8,14.7 107,0 91.6,0 24.8,37.5 28,44.2 137,0 			"/>
		</g>
		<g>
			<path class="st3" d="M637,0L344.8,32.5l482.6,439.2L700.3,0H637z M362.2,38.1L692.9,1.3l120.6,447.5L362.2,38.1z"/>
		</g>
		<g>
			<polygon class="st3" points="637,0 360,30.8 375.5,0 367.1,0 347.1,39.8 696.1,1 698.9,0 			"/>
		</g>
		<g>
			<path class="st3" d="M1061.3,909.7L811.2,451.1L1109.4,609l-1.4,2.5l3.3,1.4L1061.3,909.7z M829.8,469.5L1057.5,887l46-272.7
				L829.8,469.5z"/>
		</g>
		<g>
			<path class="st3" d="M692.5,0l124.7,462.9l288.6,152.8l2.8,1.5l3.6-4.7L702.1,0H692.5z M823.7,457.7L705.3,18.3l391,583.7
				L823.7,457.7z"/>
		</g>
		<g>
			<path class="st3" d="M1400.3,956.3l-348-55.2l365.8-447.2L1400.3,956.3z M1066.5,895.7l326.6,51.8l16.7-471.6L1066.5,895.7z"/>
		</g>
		<g>
			<path class="st3" d="M1053.3,911.7l50.9-302l310.3-149.4l4.6,4l-2.3,2.8L1053.3,911.7z M1111.1,614.8L1065.5,885l334.8-409.4
				L1111.1,614.8z"/>
		</g>
		<g>
			<path class="st3" d="M1692.5,1032.2l-303.8-78.5l326.4-275.4l5,1.2l-0.2,3.2L1692.5,1032.2z M1404.7,950.1l281,72.6l25.9-331.6
				L1404.7,950.1z"/>
		</g>
		<g>
			<path class="st3" d="M1392.7,960.3l17.8-502.6l307.8,221.7l-1.7,3.7l1.9,2.3L1392.7,960.3z M1417.4,472l-16.7,471.5l309.1-260.9
				L1417.4,472z"/>
		</g>
		<g>
			<polygon class="st3" points="0,0 0,45.6 3,0 			"/>
		</g>
		<g>
			<polygon class="st3" points="29.9,38.9 26.7,40.7 23,39.7 0,116.8 0,143.1 27.7,50.3 168.4,300.1 0,174.3 0,183.7 178.2,316.8 
				183.7,312 			"/>
		</g>
		<g>
			<polygon class="st3" points="0,116.8 0,143.1 30.5,40.9 21.4,0 13.7,0 22.7,40.6 			"/>
			<polygon class="st3" points="0,45.5 3,0 0,0 			"/>
		</g>
		<g>
			<path class="st3" d="M396,659.9L176,313.8l175.2-282L357,31l0.3,4l45.6,622.5L396,659.9z M184.9,313.8l209.4,329.4L350.6,47.1
				L184.9,313.8z"/>
		</g>
		<g>
			<path class="st3" d="M180.3,321.2L20.2,37.1l333.3-5.5l0.3,3.9l2.9,1.8L180.3,321.2z M33,44.4l147.6,262L346.7,39.2L33,44.4z"/>
		</g>
		<g>
			<path class="st3" d="M867,887.5L390.4,657.8l433.3-203.2L867,887.5z M407.9,657.9l450.3,216.9L817.3,466L407.9,657.9z"/>
		</g>
		<g>
			<path class="st3" d="M395.8,663.6L349.1,26.2l474.8,432.1l1,4.1l-2.8,1.3L395.8,663.6z M358,44.5l44.5,607.7l411.3-192.8
				L358,44.5z"/>
		</g>
		<g>
			<path class="st3" d="M1067.4,902.9l-208.3-18.2l-42.4-424l7.1-2.2l238.8,437.8L1067.4,902.9z M866,877.7l186.7,16.3L826.1,478.4
				L866,877.7z"/>
		</g>
		<g>
			<polygon class="st3" points="0,370 169.2,321 0,515.3 0,526.8 190.8,307.7 179.6,310.1 0,362.2 			"/>
		</g>
		<g>
			<polygon class="st3" points="0,174.3 0,183.7 172.1,312.3 0,362.2 0,370 181.3,317.5 189.3,315.7 			"/>
		</g>
		<g>
			<polygon class="st3" points="0,670.4 0,677.9 394.9,661.8 346.4,1087.9 0,792.6 0,802.5 352.3,1102.9 402.9,658.3 403.4,653.9 
							"/>
		</g>
		<g>
			<polygon class="st3" points="180.9,307.5 0,515.3 0,526.8 180,320.1 392.5,654.4 0,670.4 0,677.9 399.2,661.6 406,661.6 			"/>
		</g>
		<g>
			<path class="st3" d="M344.9,1101.3L396,652.2l467.9,225.4l10.6,2.7l-10.5,4.4L344.9,1101.3z M402.3,663.6l-48.5,425.9L853.4,881
				L402.3,663.6z"/>
		</g>
	</g>
	<g>
		<g>
			<polygon class="st4" points="1743.9,0 1578.2,273.8 1423,0 1421.6,0 1577.6,275.4 1578.1,276.3 1745.4,0 			"/>
		</g>
		<g>
			<polygon class="st4" points="1262.2,0 1288.3,242.5 1237.5,0 1236.2,0 1289.6,255.1 1290.9,254.9 1263.5,0 			"/>
		</g>
		<g>
			<polygon class="st4" points="1384.1,0 1382.2,118.3 1292,251.3 1367.2,0 1365.9,0 1289.6,254.8 1290.8,255.3 1383.3,118.9 
				1383.5,118.7 1385.4,0 			"/>
		</g>
		<g>
			<polygon class="st4" points="1365.9,0 1290.5,251.8 1263.5,0 1262.2,0 1289.6,255.1 1290.8,255.2 1367.2,0 			"/>
		</g>
		<g>
			<path class="st4" d="M1758.3,333.8l-181.6-58.5l0.3-0.2L1382.4,119l0.7-1l375.7,214.7L1758.3,333.8z M1578.4,274.5l174.6,56.2
				L1389.5,123L1578.4,274.5z"/>
		</g>
		<g>
			<polygon class="st4" points="1423,0 1421.6,0 1576,272.5 1383.5,118.2 1385.4,0 1384.1,0 1382.2,118.8 1577.6,275.5 1577.9,276 
				1579.1,275.1 1578.6,274.7 			"/>
		</g>
		<g>
			<polygon class="st4" points="973.1,0 1049.4,92.9 874.6,0 871.9,0 1051.6,95.4 1052.4,94.5 974.7,0 			"/>
		</g>
		<g>
			<polygon class="st4" points="1222.5,0 1052.6,93.8 1055.6,51 1217.2,0 1213,0 1054.8,49.9 1054.4,50.1 1051.2,96 1225.1,0 			"/>
		</g>
		<g>
			<polygon class="st4" points="1222.5,0 1052.1,94.1 974.7,0 973.1,0 1051.4,95.3 1051.8,95.7 1225.1,0 			"/>
		</g>
		<g>
			<path class="st4" d="M1290,255.6l-0.1-0.1l0,0l0,0L1188,184.7L1054.6,51l0.9-0.9l235.3,204.5L1290,255.6z M1067.9,62.6
				l120.8,121.1l92.3,64.2L1067.9,62.6z"/>
		</g>
		<g>
			<polygon class="st4" points="1236.2,0 1289.2,253.3 1056.3,50.8 1217.2,0 1213,0 1053.7,50.3 1291.2,256.7 1237.5,0 			"/>
		</g>
		<g>
			<path class="st4" d="M1437.2,573.8l-249.9-390l0.8-0.3l195.3-65.8l0.1,0.8l54.9,454.9L1437.2,573.8z M1189.3,184.4l247.5,386.3
				l-54.5-451.4L1189.3,184.4z"/>
		</g>
		<g>
			<path class="st4" d="M1290.4,255.9l-103.5-72l195.5-65.9l0.2-0.3l0.3,0.1l1.5-0.5l-0.6,1l0.7,0.4l-1.2,0.4L1290.4,255.9z
				 M1189.7,184.3l100.4,69.8l91.2-134.4L1189.7,184.3z"/>
		</g>
		<g>
			<path class="st4" d="M1438,574l-0.6-1.1l321.8-241v1.5l-0.1,0.2l-127.8,152.1l-0.1,0.1L1438,574z M1754.6,337l-311.8,233.5
				l187.7-85.7L1754.6,337z"/>
		</g>
		<g>
			<path class="st4" d="M1437.2,574.6L1382,117.4l1.1,0.6l376.6,215.2l-0.8,0.6L1437.2,574.6z M1383.6,119.7l54.6,452.6l319.2-239
				L1383.6,119.7z"/>
		</g>
		<g>
			<polygon class="st4" points="800.5,0 756.7,135.2 702.6,0 701.2,0 756.8,138.9 801.8,0 			"/>
		</g>
		<g>
			<path class="st4" d="M769.4,203.6L756,136.5l0.7-0.1l295.1-42.2l0.6-0.2l0.4,1.3l-0.7,0.1L769.4,203.6z M757.5,137.6l12.9,64.3
				l276.1-105.6L757.5,137.6z"/>
		</g>
		<g>
			<polygon class="st4" points="874.6,0 871.9,0 1049.9,94.5 757.7,136.3 801.8,0 800.5,0 755.9,137.8 1052,95.5 1052.8,95.4 
				1052.4,94.5 			"/>
		</g>
		<g>
			<path class="st4" d="M974.5,204.2h-0.4l-204.2-0.8l-0.3-1.2l285.3-152.3l1.1,0.2l-0.4,0.8L974.5,204.2z M772.4,202.2l201.4,0.7
				L1053.5,52L772.4,202.2z"/>
		</g>
		<g>
			<path class="st4" d="M770.1,203.4l-0.5-1.1L1054.9,50l0.8,0.1v0.6l-3.1,44.8L770.1,203.4z M1054.3,51.6L779,198.6l272.3-104.2
				L1054.3,51.6z"/>
		</g>
		<g>
			<path class="st4" d="M1261.4,476.8L972.7,203l215.5-19.6l0.6-0.2v0.7L1261.4,476.8z M975.6,204l283.6,268.9l-71.4-288.2
				L975.6,204z"/>
		</g>
		<g>
			<path class="st4" d="M973,204.3l81.8-154.8l134.6,134.9l-1,0.3L973,204.3z M1055.2,51.6l-79.9,151.2l211.7-19.2L1055.2,51.6z"/>
		</g>
		<g>
			<path class="st4" d="M1404.2,753.3l-145.4-280.1l179.2,99.6l-0.3,0.5l0.6,0.2L1404.2,753.3z M1261.8,476.4l141.8,273.1
				l33.4-175.8L1261.8,476.4z"/>
		</g>
		<g>
			<path class="st4" d="M1438,574.3l-0.6-0.3l-177.6-98.7l-0.1-0.3l-72-290.7l1.1-0.5l249.6,389.6L1438,574.3z M1260.9,474.4
				l175,97.2l-246-384L1260.9,474.4z"/>
		</g>
		<g>
			<path class="st4" d="M1614.5,789.9l-0.7-0.1l-211-37.9l228.8-268.4l-0.1,1.9L1614.5,789.9z M1405.1,751l208.2,37.4l16.8-301.3
				L1405.1,751z"/>
		</g>
		<g>
			<path class="st4" d="M1402.9,753.7l34.3-180.7l0.3-0.1l193.5-88.4l0.7,0.7l-0.4,0.4L1402.9,753.7z M1438.3,573.9L1405,749.2
				L1628.6,487L1438.3,573.9z"/>
		</g>
		<g>
			<polygon class="st4" points="690.4,0 520.1,93.2 301.6,83.7 682.3,0 676.4,0 296.7,83.5 296.8,84.7 520.2,94.4 520.4,94.4 693,0 
							"/>
		</g>
		<g>
			<path class="st4" d="M744.7,284.3L518,92.8l239.4,43.8L744.7,284.3z M522.4,94.8l221.2,186.9L756,137.5L522.4,94.8z"/>
		</g>
		<g>
			<polygon class="st4" points="702.6,0 701.2,0 755.8,136.3 522.1,93.5 693,0 690.4,0 518.4,94.1 756.7,137.7 758.2,138 
				757.3,136.8 			"/>
		</g>
		<g>
			<path class="st4" d="M862.1,375.7l-118.7-92.5l0.1-0.4l25.7-80.3l0.6,0.2l0.5-0.3L863.1,375L862.1,375.7z M744.9,282.8
				l115.6,90.1L770,204.4L744.9,282.8z"/>
		</g>
		<g>
			<path class="st4" d="M744.8,283.2l-1.2-0.3l12.6-146l1.2-0.1l13.2,65.9l-0.1,0.1L744.8,283.2z M757,141.5l-11.7,136l24-74.8
				L757,141.5z"/>
		</g>
		<g>
			<path class="st4" d="M994.2,593.2l-132.4-218l0.2-0.3L973.8,203l1-0.2v0.7l20.6,389.3L994.2,593.2z M863.2,375.3l130.7,215.2
				l-20.3-384.9L863.2,375.3z"/>
		</g>
		<g>
			<path class="st4" d="M862.5,376.5l-93.6-174.3l205.3,0.8l0.1,0.7l0.5,0.3L862.5,376.5z M771,203.4L862.6,374L973,204.2L771,203.4
				z"/>
		</g>
		<g>
			<path class="st4" d="M1282,739.3L993.2,592.8l267.6-118.9l0.1,0.9L1282,739.3z M996.2,592.9l284.4,144.2l-20.8-261.4L996.2,592.9
				z"/>
		</g>
		<g>
			<path class="st4" d="M994.1,593.8v-0.9L973.4,202l1.1,1.1l286.9,272l-0.9,0.4L994.1,593.8z M974.9,205.1L995.3,592l263.9-117.3
				L974.9,205.1z"/>
		</g>
		<g>
			<path class="st4" d="M1378.7,900.1L1280,737.5l124.6,13.5l-0.1,0.6L1378.7,900.1z M1282.5,739l95.6,157.6l25.1-144.6L1282.5,739z
				"/>
		</g>
		<g>
			<path class="st4" d="M1405,752.2l-1.2-0.1l-123.2-13.3v-0.5l-20.9-263.4l1.2-0.3L1405,752.2z M1281.8,737.6l121,13.1
				l-141.7-272.8L1281.8,737.6z"/>
		</g>
		<g>
			<path class="st4" d="M1377.6,899.4l0.2-1.2l25.6-147.5l0.6,0.1l210.3,37.8l0.3,0.9l-0.5,0.2L1377.6,899.4z M1404.5,752.2
				l-25.2,145.1l232.6-107.8L1404.5,752.2z"/>
		</g>
		<g>
			<path class="st4" d="M237.3,151.7l-1-0.7l54.3-96.4l6.9,29.7l-0.2,0.2L237.3,151.7z M290.1,58l-49.9,88.5l55.9-62.6L290.1,58z"/>
		</g>
		<g>
			<path class="st4" d="M540.5,435.1l-1.1-1.1L235.5,150.9L520.8,93v0.7L540.5,435.1z M238.1,151.7L539,432.1L519.7,94.6
				L238.1,151.7z"/>
		</g>
		<g>
			<path class="st4" d="M235.1,152.3l61.4-68.8h0.3l223.4,9.7l0.1,1.2L235.1,152.3z M297.1,84.7l-58.5,65.6l276.6-56.1L297.1,84.7z"
				/>
		</g>
		<g>
			<path class="st4" d="M572.6,453.7l-34-20.1L744,282.4l1.4,0.3l-0.8,0.8L572.6,453.7z M540.9,433.5l31.5,18.6l165.3-163.5
				L540.9,433.5z"/>
		</g>
		<g>
			<path class="st4" d="M539.2,434.8L519.5,92.4l1.1,0.9l225.8,190.8l-2.1-0.4L539.2,434.8z M520.9,95.2l19.4,337.2L743.2,283
				L520.9,95.2z"/>
		</g>
		<g>
			<path class="st4" d="M658.8,600.8l-0.4-0.7l-86.8-147.5l0.8-0.2l290-77.7l1.7-0.2l-1.1,1.3L658.8,600.8z M573.5,453.3L659,598.7
				l201.6-222.3L573.5,453.3z"/>
		</g>
		<g>
			<path class="st4" d="M570.4,454.2l1.7-1.7l172.1-170.3l119.9,93.5l-1.5,0.2L570.4,454.2z M744.2,283.9L574.6,451.7L861.1,375
				L744.2,283.9z"/>
		</g>
		<g>
			<path class="st4" d="M958.5,866.7l-0.9-0.8L657.3,599.1l338.1-6.9l-0.1,0.7L958.5,866.7z M660.5,600.3l297.1,263.9L994,593.5
				L660.5,600.3z"/>
		</g>
		<g>
			<path class="st4" d="M657.4,600.4l1-1.1l204.2-225.1l0.4,0.7l132.8,218.6h-1.1L657.4,600.4z M862.4,376.3L660.3,599.1l333.3-6.8
				L862.4,376.3z"/>
		</g>
		<g>
			<path class="st4" d="M1105.9,871.9h-0.2L958,866.1l-0.2-1.2l323.1-127.2l0.3-0.2l1.6,0.8l-1.2,0.5L1105.9,871.9z M961,865
				l144.5,5.7l171.7-130.2L961,865z"/>
		</g>
		<g>
			<path class="st4" d="M957.3,866.5L994.2,592l0.8,0.4l287.8,146l-1.3,0.5L957.3,866.5z M995.2,593.8l-36.4,270.7l320.9-126.4
				L995.2,593.8z"/>
		</g>
		<g>
			<path class="st4" d="M1379.6,899l-1.2-0.1l-274.3-27.2l177.4-134.5L1379.6,899z M1107.4,870.8l269.8,26.7L1281,739.1
				L1107.4,870.8z"/>
		</g>
		<g>
			<path class="st4" d="M249.7,387l-209-161.5l196.7-75.1v0.9L249.7,387z M43.3,225.9l205.1,158.5l-12.1-232.2L43.3,225.9z"/>
		</g>
		<g>
			<path class="st4" d="M507.9,478.5l-259.1-92.2l0.3-1.2L541,433.2l-0.9,0.9L507.9,478.5z M255.8,387.5L507.5,477l31.2-42.9
				L255.8,387.5z"/>
		</g>
		<g>
			<path class="st4" d="M541.7,434.6l-2.1-0.3l-291.2-48v-0.5l-12.3-236l1.1,1.1L541.7,434.6z M249.6,385.2l288.2,47.5L237.5,152.8
				L249.6,385.2z"/>
		</g>
		<g>
			<path class="st4" d="M602.2,487.7l-94.5-9.3l-0.2-1.2l65.2-25L602.2,487.7z M510.4,477.4l88.9,8.8l-27-32.5L510.4,477.4z"/>
		</g>
		<g>
			<path class="st4" d="M506,479.1l33.6-46.3l34.4,20.3L506,479.1z M539.9,434.4l-30.5,42l61.6-23.6L539.9,434.4z"/>
		</g>
		<g>
			<path class="st4" d="M762,912.9L600.1,487.2l1.1-0.5l58.1,112.8l-0.3,0.1l0.3-0.1l103.7,313L762,912.9z M605.3,497.1l147.6,388.2
				L658.3,600L605.3,497.1z"/>
		</g>
		<g>
			<path class="st4" d="M658.3,600L658.3,600L658.3,600L658.3,600l-86.4-146.8l1-0.7l28.2,34l58.3,113v0.2L658.3,600z M577,459.3
				l71,120.8l-47.9-92.8L577,459.3z"/>
		</g>
		<g>
			<path class="st4" d="M762.2,913.5l-0.2-0.6L657.5,597.7l1.8,1.5l299.1,265.7l1.5,0.7l-1.7,0.4L762.2,913.5z M660.2,601.8L763,912
				l193.7-46.8L660.2,601.8z"/>
		</g>
		<g>
			<path class="st4" d="M306.2,714.5l-0.4-0.2l-88.3-39.1l0.9-0.6l290-198v1.4l-0.1,0.2L306.2,714.5z M220,674.9l85.9,38l198.3-232
				L220,674.9z"/>
		</g>
		<g>
			<path class="st4" d="M218,676.3l30.5-291.5l0.8,0.3l259.9,92.5l-1,0.7L218,676.3z M249.6,386.6l-30.1,287.2L506.4,478
				L249.6,386.6z"/>
		</g>
		<g>
			<path class="st4" d="M565.3,965.4l-1-1L305.1,713.7l295.5-227.3l0.8-0.2v0.9L565.3,965.4z M307,713.8l257.3,248.9L600,488.3
				L307,713.8z"/>
		</g>
		<g>
			<path class="st4" d="M306.4,714.2l-0.9-0.9l201.9-236.2h0.3l93,9.2l0.1,0.8l0.3,0.3L306.4,714.2z M508,478.4L310.4,709.6
				l288.7-222.1L508,478.4z"/>
		</g>
		<g>
			<path class="st4" d="M564.1,964.8l0.1-0.9l35.9-477.1l1.2-0.2l161.8,425.6l0.6,0.7l-1,0.3L564.1,964.8z M601.1,489.8l-35.6,473.4
				l196.2-50.9L601.1,489.8z"/>
		</g>
	</g>
	<g>
		<path class="st5" d="M1298.5,255c0,4.6-3.7,8.3-8.3,8.3c-4.6,0-8.3-3.7-8.3-8.3c0-4.6,3.7-8.3,8.3-8.3
			C1294.8,246.7,1298.5,250.4,1298.5,255z"/>
		<path class="st5" d="M1390.3,118.5c0,4.1-3.4,7.5-7.5,7.5s-7.5-3.4-7.5-7.5s3.4-7.5,7.5-7.5C1387,111,1390.3,114.4,1390.3,118.5z"
			/>
		<path class="st5" d="M1297.6,255c0,4.1-3.3,7.4-7.4,7.4s-7.4-3.3-7.4-7.4s3.3-7.4,7.4-7.4C1294.3,247.6,1297.6,250.9,1297.6,255z"
			/>
		<path class="st5" d="M1294.5,255c0,2.3-1.9,4.2-4.2,4.2c-2.3,0-4.3-1.9-4.3-4.2s1.9-4.2,4.3-4.2
			C1292.6,250.8,1294.5,252.7,1294.5,255z"/>
		<path class="st5" d="M1388.9,118.5c0,3.3-2.7,6.1-6.1,6.1c-3.3,0-6.1-2.7-6.1-6.1c0-3.3,2.7-6,6.1-6
			C1386.2,112.5,1388.9,115.2,1388.9,118.5z"/>
		<path class="st5" d="M1389.1,118.5c0,3.5-2.8,6.3-6.3,6.3s-6.3-2.8-6.3-6.3s2.8-6.3,6.3-6.3
			C1386.3,112.2,1389.1,115.1,1389.1,118.5z"/>
		<path class="st5" d="M1058.1,94.9c0,3.4-2.8,6.2-6.2,6.2c-3.4,0-6.2-2.8-6.2-6.2c0-3.4,2.8-6.2,6.2-6.2
			C1055.3,88.7,1058.1,91.5,1058.1,94.9z"/>
		<path class="st5" d="M1228.4,0c1.8,1.9,4.2,3.1,7.1,3.1c2.8,0,5.3-1.2,7-3.1H1228.4z"/>
		<path class="st5" d="M1060.7,50.5c0,3.1-2.5,5.7-5.7,5.7s-5.7-2.5-5.7-5.7c0-3.1,2.5-5.7,5.7-5.7S1060.7,47.4,1060.7,50.5z"/>
		<path class="st5" d="M1058,94.9c0,3.4-2.7,6.1-6.1,6.1s-6.1-2.7-6.1-6.1s2.7-6.1,6.1-6.1S1058,91.5,1058,94.9z"/>
		<path class="st5" d="M1230.2,0c1.5,1.2,3.3,1.9,5.3,1.9s3.9-0.7,5.3-1.9H1230.2z"/>
		<path class="st5" d="M1057.5,94.9c0,3.1-2.5,5.6-5.6,5.6s-5.6-2.5-5.6-5.6s2.5-5.6,5.6-5.6S1057.5,91.8,1057.5,94.9z"/>
		<path class="st5" d="M1294.8,255c0,2.5-2,4.5-4.5,4.5s-4.5-2-4.5-4.5s2-4.5,4.5-4.5S1294.8,252.5,1294.8,255z"/>
		<path class="st5" d="M1196.2,184.1c0,4.4-3.5,7.9-7.9,7.9s-7.9-3.5-7.9-7.9s3.5-7.9,7.9-7.9
			C1192.7,176.2,1196.2,179.7,1196.2,184.1z"/>
		<path class="st5" d="M1065.8,50.5c0,6-4.8,10.8-10.8,10.8s-10.8-4.8-10.8-10.8s4.8-10.8,10.8-10.8S1065.8,44.6,1065.8,50.5z"/>
		<path class="st5" d="M1297.7,255c0,4.1-3.3,7.4-7.4,7.4s-7.4-3.3-7.4-7.4s3.3-7.4,7.4-7.4C1294.3,247.6,1297.7,250.9,1297.7,255z"
			/>
		<path class="st5" d="M1297.2,255c0,3.8-3.1,7-7,7s-7-3.1-7-7s3.1-7,7-7S1297.2,251.1,1297.2,255z"/>
		<path class="st5" d="M1228.7,0c1.7,1.8,4.1,3,6.8,3s5.1-1.1,6.8-3H1228.7z"/>
		<path class="st5" d="M1062.6,50.5c0,4.2-3.4,7.6-7.7,7.6c-4.2,0-7.7-3.4-7.7-7.6s3.4-7.6,7.7-7.6S1062.6,46.3,1062.6,50.5z"/>
		<path class="st5" d="M1297.6,255c0,4.1-3.3,7.4-7.4,7.4s-7.4-3.3-7.4-7.4s3.3-7.4,7.4-7.4C1294.3,247.6,1297.6,250.9,1297.6,255z"
			/>
		<path class="st5" d="M1389,118.5c0,3.4-2.7,6.1-6.1,6.1s-6.2-2.7-6.2-6.1s2.8-6.1,6.2-6.1C1386.2,112.4,1389,115.1,1389,118.5z"/>
		<path class="st5" d="M1448,573.4c0,5.7-4.6,10.2-10.2,10.2c-5.7,0-10.3-4.6-10.3-10.2c0-5.7,4.6-10.2,10.3-10.2
			C1443.4,563.2,1448,567.8,1448,573.4z"/>
		<path class="st5" d="M1198.1,184.1c0,5.4-4.4,9.8-9.8,9.8s-9.8-4.4-9.8-9.8c0-5.4,4.4-9.8,9.8-9.8S1198.1,178.7,1198.1,184.1z"/>
		<path class="st5" d="M1388.3,118.5c0,3-2.5,5.5-5.5,5.5s-5.5-2.5-5.5-5.5s2.5-5.5,5.5-5.5C1385.9,113,1388.3,115.5,1388.3,118.5z"
			/>
		<path class="st5" d="M1389.4,118.5c0,3.6-2.9,6.5-6.5,6.5s-6.5-2.9-6.5-6.5s2.9-6.5,6.5-6.5C1386.4,112,1389.4,114.9,1389.4,118.5
			z"/>
		<path class="st5" d="M1295.6,255c0,3-2.4,5.4-5.4,5.4s-5.4-2.4-5.4-5.4s2.4-5.4,5.4-5.4S1295.6,252,1295.6,255z"/>
		<path class="st5" d="M1195.9,184.1c0,4.2-3.4,7.6-7.6,7.6s-7.6-3.4-7.6-7.6c0-4.2,3.4-7.6,7.6-7.6S1195.9,179.9,1195.9,184.1z"/>
		<ellipse class="st5" cx="1382.8" cy="118.5" rx="7.5" ry="7.5"/>
		<path class="st5" d="M1441.8,573.4c0,2.3-1.8,4.1-4.1,4.1c-2.3,0-4.1-1.8-4.1-4.1s1.8-4.1,4.1-4.1
			C1440,569.3,1441.8,571.1,1441.8,573.4z"/>
		<path class="st5" d="M1388.7,118.5c0,3.3-2.6,5.9-5.9,5.9s-5.9-2.6-5.9-5.9c0-3.2,2.6-5.9,5.9-5.9S1388.7,115.3,1388.7,118.5z"/>
		<path class="st5" d="M1442.4,573.4c0,2.6-2.1,4.7-4.7,4.7s-4.7-2.1-4.7-4.7c0-2.6,2.1-4.6,4.7-4.6
			C1440.3,568.8,1442.4,570.8,1442.4,573.4z"/>
		<path class="st5" d="M693.9,0c1.4,1.9,3.6,3.1,6.2,3.1c2.5,0,4.8-1.2,6.2-3.1H693.9z"/>
		<path class="st5" d="M764.6,137.1c0,4.3-3.5,7.8-7.8,7.8s-7.8-3.5-7.8-7.8s3.5-7.8,7.8-7.8S764.6,132.8,764.6,137.1z"/>
		<path class="st5" d="M695,0c1.3,1.4,3,2.3,5.1,2.3c2,0,3.8-0.9,5.1-2.3H695z"/>
		<path class="st5" d="M1060.7,94.9c0,4.9-3.9,8.8-8.8,8.8s-8.8-3.9-8.8-8.8s4-8.8,8.8-8.8C1056.8,86.1,1060.7,90,1060.7,94.9z"/>
		<path class="st5" d="M778.5,202.8c0,4.7-3.8,8.5-8.6,8.5c-4.7,0-8.6-3.8-8.6-8.5s3.8-8.5,8.6-8.5
			C774.6,194.2,778.5,198.1,778.5,202.8z"/>
		<path class="st5" d="M764.2,137.1c0,4.1-3.3,7.4-7.4,7.4c-4.1,0-7.4-3.3-7.4-7.4c0-4.1,3.3-7.4,7.4-7.4
			C760.9,129.6,764.2,133,764.2,137.1z"/>
		<path class="st5" d="M1060.1,94.9c0,4.5-3.7,8.2-8.2,8.2s-8.2-3.7-8.2-8.2s3.7-8.2,8.2-8.2C1056.5,86.7,1060.1,90.4,1060.1,94.9z"
			/>
		<path class="st5" d="M1057.5,94.9c0,3.1-2.5,5.6-5.6,5.6s-5.6-2.5-5.6-5.6s2.5-5.6,5.6-5.6S1057.5,91.8,1057.5,94.9z"/>
		<path class="st5" d="M767.2,137.1c0,5.8-4.7,10.4-10.4,10.4c-5.8,0-10.4-4.7-10.4-10.4s4.7-10.4,10.4-10.4
			C762.5,126.7,767.2,131.3,767.2,137.1z"/>
		<ellipse class="st5" cx="1051.9" cy="94.9" rx="4.9" ry="4.9"/>
		<path class="st5" d="M1060.2,50.5c0,2.9-2.3,5.2-5.2,5.2c-2.9,0-5.2-2.3-5.2-5.2s2.3-5.2,5.2-5.2
			C1057.9,45.3,1060.2,47.7,1060.2,50.5z"/>
		<path class="st5" d="M982.3,203.5c0,4.5-3.6,8.1-8.1,8.1s-8.1-3.6-8.1-8.1s3.6-8.1,8.1-8.1C978.6,195.4,982.3,199.1,982.3,203.5z"
			/>
		<path class="st5" d="M774,202.8c0,2.3-1.8,4.1-4.1,4.1s-4.1-1.8-4.1-4.1s1.8-4.1,4.1-4.1S774,200.5,774,202.8z"/>
		<path class="st5" d="M1061.7,50.5c0,3.7-3,6.7-6.7,6.7s-6.7-3-6.7-6.7s3-6.7,6.7-6.7S1061.7,46.8,1061.7,50.5z"/>
		<path class="st5" d="M1058.9,50.5c0,2.1-1.7,3.9-3.9,3.9c-2.1,0-3.9-1.7-3.9-3.9s1.7-3.9,3.9-3.9
			C1057.1,46.7,1058.9,48.4,1058.9,50.5z"/>
		<path class="st5" d="M1056.3,94.9c0,2.4-1.9,4.3-4.3,4.3s-4.3-1.9-4.3-4.3s1.9-4.3,4.3-4.3C1054.3,90.6,1056.3,92.5,1056.3,94.9z"
			/>
		<ellipse class="st5" cx="769.9" cy="202.8" rx="5.7" ry="5.6"/>
		<path class="st5" d="M1060.4,50.5c0,3-2.4,5.4-5.5,5.4c-3,0-5.4-2.4-5.4-5.4s2.4-5.4,5.4-5.4C1058,45.1,1060.4,47.5,1060.4,50.5z"
			/>
		<path class="st5" d="M1197.3,184.1c0,5-4,9-9,9s-9-4-9-9s4-9,9-9S1197.3,179.1,1197.3,184.1z"/>
		<path class="st5" d="M1267.8,474.9c0,4.1-3.3,7.4-7.4,7.4s-7.4-3.3-7.4-7.4s3.3-7.4,7.4-7.4
			C1264.4,467.4,1267.8,470.8,1267.8,474.9z"/>
		<path class="st5" d="M983.6,203.5c0,5.2-4.2,9.4-9.4,9.4s-9.4-4.2-9.4-9.4s4.2-9.4,9.4-9.4C979.4,194.1,983.6,198.3,983.6,203.5z"
			/>
		<path class="st5" d="M1195.7,184.1c0,4.1-3.3,7.4-7.4,7.4s-7.4-3.3-7.4-7.4c0-4.1,3.3-7.4,7.4-7.4
			C1192.4,176.7,1195.7,180,1195.7,184.1z"/>
		<path class="st5" d="M1197.5,184.1c0,5.1-4.1,9.2-9.2,9.2s-9.2-4.1-9.2-9.2c0-5.1,4.1-9.2,9.2-9.2
			C1193.4,174.9,1197.5,179,1197.5,184.1z"/>
		<path class="st5" d="M1061.2,50.5c0,3.4-2.8,6.2-6.2,6.2c-3.4,0-6.2-2.8-6.2-6.2s2.8-6.2,6.2-6.2
			C1058.4,44.3,1061.2,47.1,1061.2,50.5z"/>
		<path class="st5" d="M980.1,203.5c0,3.3-2.6,5.9-5.9,5.9c-3.3,0-5.9-2.6-5.9-5.9c0-3.3,2.7-5.9,5.9-5.9
			C977.4,197.6,980.1,200.3,980.1,203.5z"/>
		<path class="st5" d="M1202,184.1c0,7.5-6.1,13.6-13.7,13.6s-13.7-6.1-13.7-13.6s6.1-13.6,13.7-13.6
			C1195.8,170.5,1202,176.6,1202,184.1z"/>
		<path class="st5" d="M1442.5,573.4c0,2.6-2.2,4.8-4.8,4.8c-2.7,0-4.8-2.1-4.8-4.8c0-2.6,2.1-4.8,4.8-4.8
			C1440.4,568.6,1442.5,570.8,1442.5,573.4z"/>
		<path class="st5" d="M1408.9,751.5c0,2.7-2.2,4.9-4.9,4.9c-2.7,0-4.9-2.2-4.9-4.9s2.2-4.9,4.9-4.9
			C1406.7,746.5,1408.9,748.7,1408.9,751.5z"/>
		<path class="st5" d="M1267.9,474.9c0,4.2-3.4,7.5-7.5,7.5c-4.2,0-7.5-3.4-7.5-7.5s3.4-7.5,7.5-7.5
			C1264.5,467.3,1267.9,470.7,1267.9,474.9z"/>
		<path class="st5" d="M1446.4,573.4c0,4.8-3.9,8.7-8.7,8.7c-4.8,0-8.7-3.9-8.7-8.7s3.9-8.7,8.7-8.7S1446.4,568.6,1446.4,573.4z"/>
		<path class="st5" d="M1444.2,573.4c0,3.6-2.9,6.4-6.4,6.4c-3.6,0-6.5-2.9-6.5-6.4c0-3.6,2.9-6.4,6.5-6.4
			C1441.3,567,1444.2,569.9,1444.2,573.4z"/>
		<path class="st5" d="M1193.4,184.1c0,2.8-2.3,5.1-5.1,5.1c-2.8,0-5.1-2.3-5.1-5.1s2.3-5.1,5.1-5.1S1193.4,181.3,1193.4,184.1z"/>
		<path class="st5" d="M1264.8,474.9c0,2.5-2,4.5-4.5,4.5s-4.5-2-4.5-4.5s2-4.5,4.5-4.5S1264.8,472.4,1264.8,474.9z"/>
		<path class="st5" d="M1442.4,573.4c0,2.6-2.1,4.7-4.7,4.7s-4.7-2.1-4.7-4.7c0-2.6,2.1-4.7,4.7-4.7S1442.4,570.8,1442.4,573.4z"/>
		<path class="st5" d="M1412.3,751.5c0,4.6-3.8,8.4-8.4,8.4s-8.4-3.7-8.4-8.4s3.8-8.4,8.4-8.4
			C1408.6,743.1,1412.3,746.8,1412.3,751.5z"/>
		<path class="st5" d="M1446.4,573.4c0,4.8-3.9,8.7-8.7,8.7s-8.7-3.9-8.7-8.7s3.9-8.7,8.7-8.7S1446.4,568.6,1446.4,573.4z"/>
		<path class="st5" d="M1411.6,751.5c0,4.2-3.4,7.6-7.7,7.6c-4.2,0-7.7-3.4-7.7-7.6c0-4.2,3.4-7.6,7.7-7.6
			C1408.2,743.8,1411.6,747.2,1411.6,751.5z"/>
		<path class="st5" d="M692.7,0c1.5,2.4,4.2,4.1,7.3,4.1s5.8-1.6,7.3-4.1H692.7z"/>
		<path class="st5" d="M526.8,93.8c0,3.6-3,6.6-6.6,6.6c-3.7,0-6.6-3-6.6-6.6s3-6.6,6.6-6.6C523.9,87.2,526.8,90.2,526.8,93.8z"/>
		<path class="st5" d="M303.1,84.1c0,3.5-2.8,6.3-6.3,6.3s-6.3-2.8-6.3-6.3s2.8-6.3,6.3-6.3C300.3,77.8,303.1,80.6,303.1,84.1z"/>
		<path class="st5" d="M691.9,0c1.6,2.9,4.6,4.8,8.2,4.8c3.5,0,6.6-2,8.2-4.8H691.9z"/>
		<path class="st5" d="M765,137.1c0,4.5-3.7,8.2-8.2,8.2s-8.2-3.7-8.2-8.2s3.7-8.2,8.2-8.2C761.3,128.9,765,132.5,765,137.1z"/>
		<path class="st5" d="M749.9,283c0,3.1-2.6,5.7-5.7,5.7c-3.1,0-5.7-2.5-5.7-5.7s2.5-5.7,5.7-5.7C747.3,277.4,749.9,279.9,749.9,283
			z"/>
		<path class="st5" d="M527.9,93.8c0,4.2-3.4,7.7-7.7,7.7c-4.2,0-7.7-3.4-7.7-7.7c0-4.2,3.4-7.7,7.7-7.7
			C524.5,86.1,527.9,89.6,527.9,93.8z"/>
		<path class="st5" d="M767.6,137.1c0,6-4.9,10.8-10.9,10.8s-10.9-4.9-10.9-10.8c0-6,4.9-10.8,10.9-10.8
			C762.8,126.2,767.6,131.1,767.6,137.1z"/>
		<path class="st5" d="M761.6,137.1c0,2.7-2.1,4.8-4.8,4.8c-2.6,0-4.8-2.1-4.8-4.8c0-2.6,2.2-4.8,4.8-4.8
			C759.4,132.3,761.6,134.4,761.6,137.1z"/>
		<path class="st5" d="M695.5,0c1.2,1.2,2.8,1.9,4.6,1.9s3.4-0.7,4.6-1.9H695.5z"/>
		<path class="st5" d="M525.1,93.8c0,2.7-2.2,4.8-4.8,4.8c-2.7,0-4.8-2.2-4.8-4.8c0-2.7,2.2-4.8,4.8-4.8
			C522.9,89,525.1,91.1,525.1,93.8z"/>
		<path class="st5" d="M765.8,137.1c0,5-4.1,9.1-9.1,9.1s-9.1-4.1-9.1-9.1s4.1-9.1,9.1-9.1C761.8,128,765.8,132.1,765.8,137.1z"/>
		<path class="st5" d="M783.3,202.8c0,7.4-6,13.3-13.4,13.3s-13.4-6-13.4-13.3c0-7.4,6-13.3,13.4-13.3
			C777.3,189.4,783.3,195.4,783.3,202.8z"/>
		<path class="st5" d="M870.9,375.2c0,4.6-3.8,8.4-8.4,8.4c-4.7,0-8.4-3.8-8.4-8.4c0-4.7,3.8-8.4,8.4-8.4
			C867.2,366.8,870.9,370.6,870.9,375.2z"/>
		<path class="st5" d="M751.9,283c0,4.2-3.4,7.7-7.7,7.7c-4.2,0-7.7-3.4-7.7-7.7c0-4.2,3.4-7.7,7.7-7.7
			C748.4,275.4,751.9,278.8,751.9,283z"/>
		<path class="st5" d="M776.2,202.8c0,3.4-2.8,6.2-6.3,6.2c-3.4,0-6.3-2.8-6.3-6.2s2.8-6.2,6.3-6.2
			C773.4,196.5,776.2,199.3,776.2,202.8z"/>
		<path class="st5" d="M776.5,202.8c0,3.7-3,6.6-6.6,6.6c-3.7,0-6.6-3-6.6-6.6s3-6.6,6.6-6.6C773.6,196.2,776.5,199.1,776.5,202.8z"
			/>
		<path class="st5" d="M764.6,137.1c0,4.3-3.5,7.8-7.8,7.8s-7.8-3.5-7.8-7.8s3.5-7.8,7.8-7.8S764.6,132.8,764.6,137.1z"/>
		<path class="st5" d="M757.1,283c0,7.1-5.8,12.9-13,12.9s-13-5.8-13-12.9s5.8-12.9,13-12.9S757.1,275.9,757.1,283z"/>
		<path class="st5" d="M778.8,202.8c0,4.9-4,8.9-8.9,8.9s-8.9-4-8.9-8.9s4-8.9,8.9-8.9S778.8,197.9,778.8,202.8z"/>
		<ellipse class="st5" cx="974.1" cy="203.5" rx="5.3" ry="5.3"/>
		<path class="st5" d="M1001.9,592.9c0,4-3.2,7.2-7.2,7.2s-7.2-3.2-7.2-7.2s3.2-7.2,7.2-7.2S1001.9,588.9,1001.9,592.9z"/>
		<path class="st5" d="M868.8,375.2c0,3.5-2.8,6.3-6.3,6.3s-6.3-2.8-6.3-6.3s2.8-6.3,6.3-6.3C866,368.9,868.8,371.8,868.8,375.2z"/>
		<path class="st5" d="M980,203.5c0,3.2-2.6,5.9-5.9,5.9c-3.2,0-5.9-2.6-5.9-5.9s2.6-5.9,5.9-5.9C977.4,197.7,980,200.3,980,203.5z"
			/>
		<path class="st5" d="M981.1,203.5c0,3.8-3.1,7-7,7s-7-3.1-7-7s3.1-7,7-7S981.1,199.7,981.1,203.5z"/>
		<path class="st5" d="M777.7,202.8c0,4.3-3.5,7.8-7.8,7.8s-7.8-3.5-7.8-7.8s3.5-7.8,7.8-7.8S777.7,198.5,777.7,202.8z"/>
		<path class="st5" d="M867.9,375.2c0,3-2.4,5.4-5.4,5.4s-5.4-2.4-5.4-5.4s2.4-5.4,5.4-5.4C865.5,369.8,867.9,372.3,867.9,375.2z"/>
		<path class="st5" d="M983.4,203.5c0,5.1-4.1,9.2-9.2,9.2c-5.1,0-9.2-4.1-9.2-9.2c0-5.1,4.1-9.2,9.2-9.2
			C979.2,194.3,983.4,198.4,983.4,203.5z"/>
		<path class="st5" d="M1266.8,474.9c0,3.6-2.9,6.5-6.5,6.5s-6.5-2.9-6.5-6.5s2.9-6.5,6.5-6.5S1266.8,471.3,1266.8,474.9z"/>
		<ellipse class="st5" cx="1281.3" cy="738.2" rx="10.6" ry="10.6"/>
		<path class="st5" d="M1001.9,592.9c0,4-3.2,7.2-7.2,7.2s-7.2-3.2-7.2-7.2s3.2-7.2,7.2-7.2S1001.9,588.9,1001.9,592.9z"/>
		<path class="st5" d="M1264.8,474.9c0,2.4-2,4.4-4.4,4.4c-2.5,0-4.4-2-4.4-4.4s2-4.4,4.4-4.4
			C1262.8,470.4,1264.8,472.4,1264.8,474.9z"/>
		<path class="st5" d="M1264.6,474.9c0,2.4-1.9,4.3-4.3,4.3s-4.3-1.9-4.3-4.3s1.9-4.3,4.3-4.3
			C1262.7,470.5,1264.6,472.5,1264.6,474.9z"/>
		<path class="st5" d="M983,203.5c0,4.9-4,8.9-8.9,8.9s-8.9-4-8.9-8.9s4-8.9,8.9-8.9C979.1,194.7,983,198.6,983,203.5z"/>
		<path class="st5" d="M1006.7,592.9c0,6.6-5.4,12-12,12s-12-5.4-12-12s5.4-12,12-12S1006.7,586.3,1006.7,592.9z"/>
		<path class="st5" d="M1270,474.9c0,5.3-4.3,9.7-9.7,9.7c-5.3,0-9.7-4.3-9.7-9.7c0-5.3,4.3-9.7,9.7-9.7
			C1265.7,465.2,1270,469.5,1270,474.9z"/>
		<path class="st5" d="M1409.4,751.5c0,3-2.4,5.4-5.4,5.4s-5.4-2.4-5.4-5.4s2.4-5.4,5.4-5.4C1407,746,1409.4,748.5,1409.4,751.5z"/>
		<ellipse class="st5" cx="1281.3" cy="738.2" rx="5.9" ry="5.9"/>
		<path class="st5" d="M1412,751.5c0,4.4-3.6,8-8.1,8s-8.1-3.6-8.1-8c0-4.5,3.6-8.1,8.1-8.1S1412,747,1412,751.5z"/>
		<path class="st5" d="M1410.7,751.5c0,3.7-3,6.7-6.8,6.7c-3.7,0-6.8-3-6.8-6.7s3-6.8,6.8-6.8S1410.7,747.7,1410.7,751.5z"/>
		<path class="st5" d="M1267.6,474.9c0,4-3.2,7.3-7.3,7.3c-4,0-7.3-3.2-7.3-7.3c0-4,3.2-7.3,7.3-7.3
			C1264.3,467.6,1267.6,470.9,1267.6,474.9z"/>
		<path class="st5" d="M1284.9,738.2c0,2-1.6,3.6-3.7,3.6c-2,0-3.7-1.6-3.7-3.6s1.6-3.7,3.7-3.7
			C1283.3,734.6,1284.9,736.2,1284.9,738.2z"/>
		<ellipse class="st5" cx="1403.9" cy="751.5" rx="7.4" ry="7.4"/>
		<path class="st5" d="M1414.5,751.5c0,5.8-4.7,10.6-10.6,10.6c-5.8,0-10.6-4.7-10.6-10.6c0-5.8,4.7-10.6,10.6-10.6
			S1414.5,745.6,1414.5,751.5z"/>
		<path class="st5" d="M302.8,84.1c0,3.3-2.7,6-6,6s-6-2.7-6-6s2.7-5.9,6-5.9C300.1,78.1,302.8,80.8,302.8,84.1z"/>
		<path class="st5" d="M244,151.3c0,3.9-3.2,7.1-7.2,7.1s-7.2-3.2-7.2-7.1c0-3.9,3.2-7.1,7.2-7.1S244,147.4,244,151.3z"/>
		<path class="st5" d="M294.9,56.3c0,2.5-2,4.6-4.6,4.6s-4.6-2-4.6-4.6c0-2.5,2.1-4.6,4.6-4.6S294.9,53.8,294.9,56.3z"/>
		<path class="st5" d="M303.8,84.1c0,3.9-3.1,7-7,7s-7-3.1-7-7s3.1-7,7-7C300.7,77.1,303.8,80.2,303.8,84.1z"/>
		<path class="st5" d="M525,93.8c0,2.6-2.1,4.7-4.8,4.7s-4.8-2.1-4.8-4.7s2.1-4.7,4.8-4.7S525,91.2,525,93.8z"/>
		<path class="st5" d="M549.1,433.6c0,5.1-4.2,9.3-9.3,9.3c-5.2,0-9.3-4.2-9.3-9.3c0-5.2,4.2-9.3,9.3-9.3
			C544.9,424.3,549.1,428.5,549.1,433.6z"/>
		<path class="st5" d="M242.1,151.3c0,2.9-2.4,5.3-5.3,5.3c-2.9,0-5.3-2.4-5.3-5.3c0-2.9,2.4-5.3,5.3-5.3
			C239.7,146,242.1,148.4,242.1,151.3z"/>
		<path class="st5" d="M524.7,93.8c0,2.4-2,4.4-4.4,4.4s-4.4-2-4.4-4.4s2-4.4,4.4-4.4S524.7,91.4,524.7,93.8z"/>
		<path class="st5" d="M526.7,93.8c0,3.5-2.9,6.4-6.4,6.4c-3.6,0-6.4-2.9-6.4-6.4s2.9-6.4,6.4-6.4S526.7,90.3,526.7,93.8z"/>
		<path class="st5" d="M304.2,84.1c0,4.1-3.3,7.4-7.4,7.4s-7.4-3.3-7.4-7.4s3.3-7.4,7.4-7.4C300.9,76.7,304.2,80,304.2,84.1z"/>
		<path class="st5" d="M244.3,151.3c0,4.1-3.3,7.4-7.4,7.4c-4.1,0-7.4-3.3-7.4-7.4c0-4.1,3.3-7.4,7.4-7.4
			C240.9,143.9,244.3,147.2,244.3,151.3z"/>
		<path class="st5" d="M528.6,93.8c0,4.6-3.7,8.3-8.3,8.3s-8.4-3.7-8.4-8.3c0-4.6,3.7-8.3,8.4-8.3C524.8,85.5,528.6,89.2,528.6,93.8
			z"/>
		<path class="st5" d="M752.9,283c0,4.8-3.9,8.7-8.7,8.7s-8.7-3.9-8.7-8.7s3.9-8.7,8.7-8.7C749,274.4,752.9,278.2,752.9,283z"/>
		<path class="st5" d="M579.3,453c0,3.7-3,6.8-6.8,6.8s-6.8-3-6.8-6.8c0-3.7,3-6.8,6.8-6.8S579.3,449.2,579.3,453z"/>
		<path class="st5" d="M547.9,433.6c0,4.5-3.6,8.1-8.2,8.1c-4.5,0-8.2-3.6-8.2-8.1s3.7-8.1,8.2-8.1S547.9,429.1,547.9,433.6z"/>
		<ellipse class="st5" cx="744.2" cy="283" rx="7.6" ry="7.6"/>
		<path class="st5" d="M752,283c0,4.3-3.5,7.8-7.8,7.8s-7.8-3.5-7.8-7.8s3.5-7.8,7.8-7.8C748.5,275.3,752,278.7,752,283z"/>
		<path class="st5" d="M529.8,93.8c0,5.3-4.3,9.6-9.6,9.6s-9.6-4.3-9.6-9.6c0-5.3,4.3-9.6,9.6-9.6C525.5,84.2,529.8,88.5,529.8,93.8
			z"/>
		<path class="st5" d="M545.9,433.6c0,3.4-2.8,6.2-6.2,6.2s-6.2-2.8-6.2-6.2c0-3.4,2.8-6.2,6.2-6.2
			C543.2,427.4,545.9,430.2,545.9,433.6z"/>
		<path class="st5" d="M749.2,283c0,2.8-2.3,5-5.1,5s-5-2.2-5-5s2.3-5,5-5C747,278,749.2,280.3,749.2,283z"/>
		<path class="st5" d="M872.6,375.2c0,5.6-4.5,10.1-10.1,10.1s-10.1-4.5-10.1-10.1s4.5-10.1,10.1-10.1S872.6,369.7,872.6,375.2z"/>
		<path class="st5" d="M663.3,599.7c0,2.5-2,4.5-4.5,4.5s-4.5-2-4.5-4.5s2-4.4,4.5-4.4S663.3,597.3,663.3,599.7z"/>
		<path class="st5" d="M577.6,453c0,2.8-2.3,5.1-5.1,5.1s-5.1-2.3-5.1-5.1c0-2.8,2.3-5.1,5.1-5.1S577.6,450.1,577.6,453z"/>
		<path class="st5" d="M868.2,375.2c0,3.2-2.6,5.7-5.7,5.7s-5.8-2.6-5.8-5.7c0-3.2,2.6-5.7,5.8-5.7S868.2,372.1,868.2,375.2z"/>
		<path class="st5" d="M874.5,375.2c0,6.6-5.4,12-12,12s-12-5.4-12-12s5.4-12,12-12C869.1,363.3,874.5,368.6,874.5,375.2z"/>
		<path class="st5" d="M749.2,283c0,2.8-2.2,5-5,5s-5-2.2-5-5s2.2-5,5-5S749.2,280.3,749.2,283z"/>
		<ellipse class="st5" cx="572.5" cy="453" rx="5.5" ry="5.5"/>
		<path class="st5" d="M869.7,375.2c0,4-3.2,7.2-7.2,7.2s-7.2-3.2-7.2-7.2s3.2-7.2,7.2-7.2S869.7,371.3,869.7,375.2z"/>
		<path class="st5" d="M1000.9,592.9c0,3.4-2.8,6.2-6.2,6.2s-6.2-2.8-6.2-6.2s2.8-6.2,6.2-6.2
			C998.1,586.7,1000.9,589.5,1000.9,592.9z"/>
		<path class="st5" d="M667.8,599.7c0,4.9-4,8.9-8.9,8.9s-8.9-4-8.9-8.9s4-8.9,8.9-8.9S667.8,594.8,667.8,599.7z"/>
		<path class="st5" d="M1002.5,592.9c0,4.3-3.5,7.8-7.8,7.8s-7.8-3.5-7.8-7.8s3.5-7.8,7.8-7.8C999,585,1002.5,588.5,1002.5,592.9z"
			/>
		<path class="st5" d="M1001.5,592.9c0,3.7-3,6.8-6.8,6.8c-3.7,0-6.8-3-6.8-6.8c0-3.7,3-6.8,6.8-6.8
			C998.5,586.1,1001.5,589.1,1001.5,592.9z"/>
		<path class="st5" d="M870.9,375.2c0,4.6-3.8,8.4-8.4,8.4c-4.6,0-8.4-3.8-8.4-8.4s3.8-8.4,8.4-8.4
			C867.2,366.8,870.9,370.6,870.9,375.2z"/>
		<path class="st5" d="M664.6,599.7c0,3.2-2.6,5.8-5.8,5.8s-5.8-2.6-5.8-5.8s2.6-5.8,5.8-5.8C662.1,594,664.6,596.6,664.6,599.7z"/>
		<path class="st5" d="M1003.3,592.9c0,4.7-3.8,8.6-8.6,8.6s-8.6-3.8-8.6-8.6c0-4.7,3.9-8.6,8.6-8.6S1003.3,588.1,1003.3,592.9z"/>
		<path class="st5" d="M1285.6,738.2c0,2.4-2,4.4-4.4,4.4s-4.4-2-4.4-4.4s2-4.4,4.4-4.4C1283.7,733.8,1285.6,735.8,1285.6,738.2z"/>
		<path class="st5" d="M1288.7,738.2c0,4.1-3.3,7.4-7.4,7.4s-7.4-3.3-7.4-7.4c0-4.1,3.3-7.4,7.4-7.4
			C1285.4,730.8,1288.7,734.1,1288.7,738.2z"/>
		<ellipse class="st5" cx="1281.3" cy="738.2" rx="5.5" ry="5.5"/>
		<path class="st5" d="M1003.1,592.9c0,4.6-3.7,8.3-8.4,8.3c-4.6,0-8.4-3.7-8.4-8.3s3.7-8.4,8.4-8.4
			C999.3,584.5,1003.1,588.3,1003.1,592.9z"/>
		<path class="st5" d="M1288.2,738.2c0,3.8-3.1,6.9-6.9,6.9s-6.9-3.1-6.9-6.9c0-3.8,3.1-6.9,6.9-6.9S1288.2,734.4,1288.2,738.2z"/>
		<path class="st5" d="M1288,738.2c0,3.7-3,6.7-6.7,6.7s-6.7-3-6.7-6.7s3-6.7,6.7-6.7S1288,734.5,1288,738.2z"/>
		<path class="st5" d="M244.1,151.3c0,4-3.3,7.3-7.3,7.3s-7.3-3.2-7.3-7.3c0-4,3.2-7.3,7.3-7.3C240.8,144,244.1,147.3,244.1,151.3z"
			/>
		<path class="st5" d="M262,385.7c0,7.1-5.8,12.9-12.9,12.9s-12.9-5.8-12.9-12.9s5.8-12.9,12.9-12.9
			C256.2,372.8,262,378.6,262,385.7z"/>
		<path class="st5" d="M49.7,225.7c0,4.3-3.5,7.7-7.7,7.7c-4.3,0-7.7-3.5-7.7-7.7c0-4.3,3.5-7.7,7.7-7.7
			C46.3,218,49.7,221.4,49.7,225.7z"/>
		<path class="st5" d="M246.6,151.3c0,5.4-4.4,9.8-9.8,9.8c-5.4,0-9.8-4.4-9.8-9.8c0-5.4,4.4-9.8,9.8-9.8
			C242.2,141.5,246.6,145.9,246.6,151.3z"/>
		<path class="st5" d="M547.6,433.6c0,4.3-3.5,7.8-7.9,7.8c-4.3,0-7.9-3.5-7.9-7.8s3.5-7.8,7.9-7.8
			C544.1,425.8,547.6,429.3,547.6,433.6z"/>
		<path class="st5" d="M515.4,477.8c0,4.2-3.4,7.7-7.7,7.7c-4.2,0-7.7-3.4-7.7-7.7c0-4.3,3.5-7.7,7.7-7.7
			C512,470.1,515.4,473.5,515.4,477.8z"/>
		<path class="st5" d="M255.9,385.7c0,3.8-3.1,6.8-6.8,6.8c-3.8,0-6.8-3.1-6.8-6.8c0-3.8,3.1-6.8,6.8-6.8
			C252.8,378.9,255.9,381.9,255.9,385.7z"/>
		<path class="st5" d="M554.5,433.6c0,8.1-6.6,14.7-14.7,14.7c-8.2,0-14.7-6.6-14.7-14.7s6.6-14.7,14.7-14.7
			S554.5,425.5,554.5,433.6z"/>
		<path class="st5" d="M549.6,433.6c0,5.4-4.4,9.8-9.8,9.8c-5.4,0-9.8-4.4-9.8-9.8s4.4-9.8,9.8-9.8
			C545.2,423.8,549.6,428.2,549.6,433.6z"/>
		<path class="st5" d="M244.1,151.3c0,4-3.3,7.3-7.3,7.3s-7.3-3.3-7.3-7.3s3.2-7.3,7.3-7.3C240.8,144,244.1,147.3,244.1,151.3z"/>
		<path class="st5" d="M255.4,385.7c0,3.5-2.8,6.3-6.3,6.3s-6.3-2.8-6.3-6.3s2.8-6.3,6.3-6.3C252.5,379.4,255.4,382.2,255.4,385.7z"
			/>
		<path class="st5" d="M545.1,433.6c0,3-2.4,5.4-5.4,5.4s-5.4-2.4-5.4-5.4s2.4-5.4,5.4-5.4C542.7,428.2,545.1,430.6,545.1,433.6z"/>
		<path class="st5" d="M578.6,453c0,3.4-2.7,6.1-6.1,6.1c-3.4,0-6.1-2.7-6.1-6.1s2.7-6.1,6.1-6.1C575.9,446.9,578.6,449.6,578.6,453
			z"/>
		<path class="st5" d="M609,487c0,4.6-3.7,8.3-8.3,8.3s-8.3-3.7-8.3-8.3s3.7-8.3,8.3-8.3S609,482.4,609,487z"/>
		<path class="st5" d="M518.3,477.8c0,5.8-4.8,10.6-10.6,10.6c-5.9,0-10.6-4.7-10.6-10.6c0-5.8,4.7-10.6,10.6-10.6
			C513.6,467.2,518.3,471.9,518.3,477.8z"/>
		<path class="st5" d="M579.5,453c0,3.8-3.1,7-7,7s-7-3.1-7-7s3.1-7,7-7C576.3,446,579.5,449.1,579.5,453z"/>
		<path class="st5" d="M582.2,453c0,5.3-4.3,9.6-9.7,9.6c-5.3,0-9.7-4.3-9.7-9.6c0-5.3,4.3-9.6,9.7-9.6
			C577.8,443.3,582.2,447.6,582.2,453z"/>
		<path class="st5" d="M543.9,433.6c0,2.3-1.9,4.2-4.2,4.2s-4.2-1.9-4.2-4.2c0-2.3,1.9-4.2,4.2-4.2
			C542.1,429.4,543.9,431.3,543.9,433.6z"/>
		<path class="st5" d="M518.5,477.8c0,6-4.8,10.8-10.8,10.8s-10.8-4.8-10.8-10.8s4.8-10.8,10.8-10.8S518.5,471.8,518.5,477.8z"/>
		<path class="st5" d="M581.2,453c0,4.8-3.9,8.7-8.7,8.7s-8.7-3.9-8.7-8.7c0-4.8,3.9-8.7,8.7-8.7S581.2,448.2,581.2,453z"/>
		<path class="st5" d="M665.7,599.7c0,3.7-3,6.8-6.8,6.8c-3.7,0-6.8-3-6.8-6.8c0-3.7,3-6.8,6.8-6.8C662.6,593,665.7,596,665.7,599.7
			z"/>
		<path class="st5" d="M608.7,487c0,4.4-3.6,8-8,8s-8-3.6-8-8s3.6-8,8-8C605.2,479,608.7,482.5,608.7,487z"/>
		<path class="st5" d="M664.8,599.7c0,3.2-2.6,5.9-5.9,5.9c-3.3,0-5.9-2.6-5.9-5.9c0-3.2,2.6-5.9,5.9-5.9
			C662.1,593.9,664.8,596.5,664.8,599.7z"/>
		<path class="st5" d="M662.9,599.7c0,2.2-1.8,4-4,4s-4-1.8-4-4s1.8-4,4-4C661.1,595.7,662.9,597.5,662.9,599.7z"/>
		<path class="st5" d="M579,453c0,3.6-2.9,6.5-6.6,6.5s-6.6-2.9-6.6-6.5s2.9-6.5,6.6-6.5S579,449.3,579,453z"/>
		<path class="st5" d="M610.7,487c0,5.5-4.4,9.9-9.9,9.9s-9.9-4.4-9.9-9.9s4.4-9.9,9.9-9.9C606.2,477,610.7,481.5,610.7,487z"/>
		<path class="st5" d="M666.9,599.7c0,4.4-3.6,8-8,8s-8-3.6-8-8s3.6-8,8-8C663.3,591.7,666.9,595.3,666.9,599.7z"/>
		<path class="st5" d="M663.9,599.7c0,2.8-2.3,5-5,5c-2.8,0-5-2.2-5-5s2.3-5,5-5C661.7,594.7,663.9,597,663.9,599.7z"/>
		<path class="st5" d="M512.3,477.8c0,2.5-2,4.5-4.6,4.5c-2.5,0-4.6-2-4.6-4.5s2-4.6,4.6-4.6C510.2,473.2,512.3,475.2,512.3,477.8z"
			/>
		<path class="st5" d="M310.6,713.7c0,2.5-2,4.6-4.6,4.6c-2.5,0-4.6-2-4.6-4.6c0-2.5,2-4.6,4.6-4.6
			C308.5,709.2,310.6,711.2,310.6,713.7z"/>
		<path class="st5" d="M226,675c0,4-3.3,7.3-7.3,7.3s-7.3-3.3-7.3-7.3s3.3-7.3,7.3-7.3C222.8,667.7,226,671,226,675z"/>
		<path class="st5" d="M514,477.7c0,3.5-2.8,6.3-6.3,6.3s-6.3-2.8-6.3-6.3s2.8-6.3,6.3-6.3S514,474.3,514,477.7z"/>
		<path class="st5" d="M516.4,477.8c0,4.8-3.9,8.7-8.7,8.7s-8.7-3.9-8.7-8.7c0-4.8,3.9-8.7,8.7-8.7
			C512.5,469.1,516.4,473,516.4,477.8z"/>
		<path class="st5" d="M253.9,385.7c0,2.6-2.2,4.8-4.8,4.8c-2.7,0-4.8-2.2-4.8-4.8c0-2.7,2.2-4.8,4.8-4.8
			C251.7,380.9,253.9,383.1,253.9,385.7z"/>
		<path class="st5" d="M226.8,675c0,4.4-3.6,8-8.1,8c-4.4,0-8-3.6-8-8s3.6-8,8-8C223.2,667,226.8,670.6,226.8,675z"/>
		<path class="st5" d="M513.3,477.7c0,3.1-2.5,5.6-5.6,5.6s-5.6-2.5-5.6-5.6s2.5-5.6,5.6-5.6S513.3,474.6,513.3,477.7z"/>
		<ellipse class="st5" cx="600.7" cy="487" rx="6.4" ry="6.4"/>
		<path class="st5" d="M314.1,713.7c0,4.5-3.6,8.1-8.1,8.1s-8.1-3.6-8.1-8.1s3.6-8.1,8.1-8.1C310.5,705.6,314.1,709.2,314.1,713.7z"
			/>
		<path class="st5" d="M605.6,487c0,2.7-2.2,4.8-4.8,4.8c-2.7,0-4.8-2.2-4.8-4.8c0-2.7,2.2-4.8,4.8-4.8
			C603.4,482.1,605.6,484.3,605.6,487z"/>
		<path class="st5" d="M608,487c0,4-3.2,7.2-7.2,7.2s-7.2-3.2-7.2-7.2s3.2-7.2,7.2-7.2C604.7,479.7,608,483,608,487z"/>
		<path class="st5" d="M514,477.8c0,3.4-2.8,6.2-6.3,6.2c-3.4,0-6.3-2.8-6.3-6.2c0-3.4,2.8-6.2,6.3-6.2
			C511.2,471.5,514,474.3,514,477.8z"/>
		<path class="st5" d="M316.1,713.7c0,5.5-4.5,10-10,10c-5.6,0-10.1-4.5-10.1-10s4.5-10,10.1-10
			C311.6,703.7,316.1,708.2,316.1,713.7z"/>
		<ellipse class="st5" cx="600.7" cy="487" rx="5.2" ry="5.2"/>
		<path class="st5" d="M606.8,487c0,3.3-2.7,6-6.1,6c-3.3,0-6.1-2.7-6.1-6s2.7-6.1,6.1-6.1S606.8,483.6,606.8,487z"/>
	</g>
</g>
</svg>
