<?xml version="1.0" encoding="utf-8"?>
<!-- Generator: Adobe Illustrator 26.2.1, SVG Export Plug-In . SVG Version: 6.00 Build 0)  -->
<svg version="1.1" id="Layer_1" xmlns="http://www.w3.org/2000/svg" x="0px"
     y="0px"
     viewBox="0 0 1440 779" style="enable-background:new 0 0 1440 779;"
     xml:space="preserve">
<style type="text/css">
	.st0{opacity:5.000000e-02;}
	.st1{display:none;fill:#FFFFFF;}
	.st2{opacity:0.11;}
	.st3{fill:#BCBEC0;}
	.st4{fill:#E6E7E8;}
	.st5{fill:#808285;}
	.st6{opacity:0.12;fill:none;stroke:#D1D1D1;stroke-width:2;stroke-linecap:round;stroke-miterlimit:10;enable-background:new    ;}
</style>
<g class="st0">
	<rect x="-97.2" y="-44.3" class="st1" width="2666.5" height="1333.2"/>
	<g>
		<g class="st2">
			<g>
				<polygon class="st3" points="1141.5,-44.3 1078.4,64.7 1013.6,-44.3 1005.8,-44.3 1078.4,78 1149.2,-44.3 				"/>
			</g>
			<g>
				<polygon class="st3" points="1385.5,-44.3 1229.6,189.6 1084,71.6 1251.1,-44.3 1239.4,-44.3 1072.8,71.2 1231.1,199.5 
					1393.6,-44.3 				"/>
			</g>
			<g>
				<polygon class="st3" points="1239.4,-44.3 1088.8,60.1 1149.2,-44.3 1141.5,-44.3 1075.5,69.7 1080.3,74.2 1251.1,-44.3 				"/>
			</g>
			<g>
				<polygon class="st3" points="652.7,-44.3 656.4,-15.2 649.7,-44.3 642.7,-44.3 665,51.9 671.5,50.7 659.4,-44.3 				"/>
			</g>
			<g>
				<polygon class="st3" points="726.2,-44.3 677.3,31.1 698.2,-44.3 691.2,-44.3 665.1,50.3 671.1,53 734.2,-44.3 				"/>
			</g>
			<g>
				<polygon class="st3" points="691.2,-44.3 669.5,34.3 659.4,-44.3 652.7,-44.3 665,51.6 671.5,52 698.2,-44.3 				"/>
			</g>
			<g>
				<polygon class="st3" points="975.2,-44.3 1307,136.5 1080,68.4 933.4,-44.3 922.5,-44.3 1075.1,73 1075.1,73.9 1335.8,152.1 
					1338.4,146 989.1,-44.3 				"/>
			</g>
			<g>
				<polygon class="st3" points="1080.9,69.1 1013.6,-44.3 1005.8,-44.3 1066.6,58.1 933.4,-44.3 922.5,-44.3 1075.9,73.6 
					1081.7,83.6 1081.7,69.7 				"/>
			</g>
			<g>
				<path class="st3" d="M1179.1,406.9l-6-2.6l54.4-212.3l117.8-50.6L1179.1,406.9z M1233.2,197l-48.3,188.2l143.3-229L1233.2,197z"
					/>
			</g>
			<g>
				<path class="st3" d="M1229.8,198.4L1076.3,74l3.1-5.8l267.2,80.1L1229.8,198.4z M1093.6,79.5l137.2,111.2l96.1-41.2L1093.6,79.5
					z"/>
			</g>
			<g>
				<path class="st3" d="M1331.4,573.7L1171.5,405l299.9-267.4l3.7,3l1.7,0.5L1331.4,573.7z M1181.1,405.4l147.5,155.6L1466.3,151
					L1181.1,405.4z"/>
			</g>
			<g>
				<path class="st3" d="M1170.4,415l57.2-223.3l257.8-57.8L1170.4,415z M1233.1,197.4l-50.8,198l279.4-249.3L1233.1,197.4z"/>
			</g>
			<g>
				<polygon class="st3" points="548.5,-44.3 618.6,14.1 530.8,-44.3 518.8,-44.3 519,-44.1 666.4,53.9 666.9,54.3 667.5,54.4 
					670.4,48.6 559,-44.3 				"/>
			</g>
			<g>
				<polygon class="st3" points="642.7,-44.3 662.7,42.2 559,-44.3 548.5,-44.3 673.8,60.1 649.7,-44.3 				"/>
			</g>
			<g>
				<polygon class="st3" points="807,-44.3 881.9,485.9 526.8,-44.3 518.8,-44.3 884.5,501.8 890.6,499.5 813.8,-44.3 				"/>
			</g>
			<g>
				<polygon class="st3" points="726.2,-44.3 667.3,46.5 530.8,-44.3 518.8,-44.3 669.2,55.9 734.2,-44.3 				"/>
			</g>
			<g>
				<path class="st3" d="M888.8,502.9l-3.6-5.7L1340.1,142v8l-0.7,1l-177.8,220.6l-0.7,0.4L888.8,502.9z M1315.9,169.4l-402.1,314
					l243.5-117.2L1315.9,169.4z"/>
			</g>
			<g>
				<polygon class="st3" points="975.2,-44.3 1330.7,149.4 889.8,493.7 813.8,-44.3 807,-44.3 884.8,506.1 1342.9,148.4 
					989.1,-44.3 				"/>
			</g>
			<g>
				<path class="st3" d="M1426.3,565.1l-255-159l1.1-1.3l-21.3-46L1430,559.6L1426.3,565.1z M1179,402.9L1344.2,506L1167.9,379
					L1179,402.9z"/>
			</g>
			<g>
				<path class="st3" d="M1175.9,412.2l-20.3-43.8l178.6-221.6l5.5,3.9L1175.9,412.2z M1163.4,369.3l13.3,28.8l127.4-203.4
					L1163.4,369.3z"/>
			</g>
			<g>
				<path class="st3" d="M1329.3,571.5l-1.7-1.8l-153.7-162.2l4.2-5.2L1438.8,565l-107.9,5.7L1329.3,571.5z M1196.7,421.9
					L1331.4,564l85.9-4.5L1196.7,421.9z"/>
			</g>
			<g>
				<polygon class="st3" points="6.8,-44.3 -71.2,-12.7 -78.2,-44.3 -85,-44.3 -76,-3.5 24.6,-44.3 				"/>
			</g>
			<g>
				<polygon class="st3" points="229.1,-44.3 214.9,-16.2 -60.4,-11.7 -2.1,-44.3 -15.8,-44.3 -75.2,-11 -73.5,-4.8 219.1,-9.7 
					236.5,-44.3 				"/>
			</g>
			<g>
				<polygon class="st3" points="6.8,-44.3 -25.4,-31.3 -2.1,-44.3 -15.8,-44.3 -75.2,-11 -72.3,-5 24.6,-44.3 				"/>
			</g>
			<g>
				<path class="st3" d="M469-44.3L209.3-15.4l428.9,390.4l-113-419.3H469z M224.7-10.5l293.9-32.7l107.2,397.8L224.7-10.5z"/>
			</g>
			<g>
				<polygon class="st3" points="469,-44.3 222.8,-16.9 236.5,-44.3 229.1,-44.3 211.3,-8.9 521.5,-43.4 524,-44.3 				"/>
			</g>
			<g>
				<path class="st3" d="M846.1,764.2L623.8,356.6l265,140.3l-1.2,2.2l2.9,1.2L846.1,764.2z M640.3,373l202.4,371.1l40.9-242.4
					L640.3,373z"/>
			</g>
			<g>
				<path class="st3" d="M518.3-44.3l110.8,411.4l256.5,135.8l2.5,1.3l3.2-4.2L526.8-44.3H518.3z M634.9,362.5L529.7-28.1
					l347.5,518.8L634.9,362.5z"/>
			</g>
			<g>
				<path class="st3" d="M1147.4,805.7l-309.3-49.1l325.1-397.5L1147.4,805.7z M850.7,751.8l290.3,46l14.8-419.2L850.7,751.8z"/>
			</g>
			<g>
				<path class="st3" d="M839,766l45.2-268.4L1160,364.8l4.1,3.6l-2,2.5L839,766z M890.4,502.1l-40.5,240.2l297.6-363.9L890.4,502.1
					z"/>
			</g>
			<g>
				<path class="st3" d="M1407.1,873.1l-270-69.8l290.1-244.8l4.4,1.1l-0.2,2.8L1407.1,873.1z M1151.3,800.2l249.8,64.5l23-294.7
					L1151.3,800.2z"/>
			</g>
			<g>
				<path class="st3" d="M1140.7,809.2l15.8-446.7l273.6,197.1l-1.5,3.3l1.7,2L1140.7,809.2z M1162.6,375.2l-14.8,419.1l274.7-231.9
					L1162.6,375.2z"/>
			</g>
			<g>
				<polygon class="st3" points="-70.6,-9.7 -73.5,-8.1 -76.8,-9 -97.2,59.5 -97.2,82.9 -72.6,0.4 52.5,222.4 -97.2,110.6 
					-97.2,119 61.2,237.3 66.1,233 				"/>
			</g>
			<g>
				<path class="st3" d="M254.8,542.2L59.2,234.6L214.9-16.1l5.2-0.7l0.3,3.6l40.5,553.3L254.8,542.2z M67.1,234.6l186.1,292.8
					L214.4-2.5L67.1,234.6z"/>
			</g>
			<g>
				<path class="st3" d="M63,241.2L-79.3-11.3L217-16.2l0.3,3.5l2.6,1.6L63,241.2z M-67.9-4.9L63.3,228L210.9-9.5L-67.9-4.9z"/>
			</g>
			<g>
				<path class="st3" d="M673.4,744.5L249.8,540.4l385.1-180.6L673.4,744.5z M265.3,540.4l400.2,192.8l-36.4-363.4L265.3,540.4z"/>
			</g>
			<g>
				<path class="st3" d="M254.6,545.5L213.1-21l422,384.1l0.9,3.6l-2.5,1.2L254.6,545.5z M221-4.8l39.6,540.1L626.1,364L221-4.8z"/>
			</g>
			<g>
				<path class="st3" d="M851.5,758.2L666.4,742l-37.7-376.9l6.3-2l212.3,389.1L851.5,758.2z M672.5,735.8l165.9,14.5L637.1,380.9
					L672.5,735.8z"/>
			</g>
			<g>
				<polygon class="st3" points="-97.2,284.5 53.2,241 -97.2,413.7 -97.2,423.9 72.4,229.2 62.4,231.3 -97.2,277.6 				"/>
			</g>
			<g>
				<polygon class="st3" points="-97.2,110.6 -97.2,119 55.8,233.3 -97.2,277.6 -97.2,284.5 63.9,237.9 71,236.3 				"/>
			</g>
			<g>
				<polygon class="st3" points="-97.2,551.6 -97.2,558.2 253.8,543.9 210.7,922.6 -97.2,660.2 -97.2,669 215.9,936 260.9,540.8 
					261.3,536.9 				"/>
			</g>
			<g>
				<polygon class="st3" points="63.6,229 -97.2,413.7 -97.2,423.9 62.8,240.2 251.7,537.3 -97.2,551.6 -97.2,558.2 257.6,543.7 
					263.7,543.7 				"/>
			</g>
			<g>
				<path class="st3" d="M209.3,934.5l45.4-399.2l415.9,200.3l9.4,2.4l-9.3,3.9L209.3,934.5z M260.4,545.5l-43.1,378.6l444.1-185.3
					L260.4,545.5z"/>
			</g>
		</g>
		<g>
			<g>
				<polygon class="st4" points="1452.8,-44.3 1305.5,199 1167.6,-44.3 1166.4,-44.3 1305,200.5 1305.5,201.3 1454.2,-44.3 				"/>
			</g>
			<g>
				<polygon class="st4" points="1024.7,-44.3 1047.9,171.2 1002.7,-44.3 1001.6,-44.3 1049,182.4 1050.2,182.2 1025.8,-44.3 				
					"/>
			</g>
			<g>
				<polygon class="st4" points="1133,-44.3 1131.3,60.8 1051.2,179 1118,-44.3 1116.8,-44.3 1049,182.2 1050.1,182.6 1132.3,61.4 
					1132.5,61.2 1134.2,-44.3 				"/>
			</g>
			<g>
				<polygon class="st4" points="1116.8,-44.3 1049.8,179.5 1025.8,-44.3 1024.7,-44.3 1049,182.4 1050.1,182.5 1118,-44.3 				"/>
			</g>
			<g>
				<path class="st4" d="M1465.6,252.4l-161.4-52l0.3-0.2l-173-138.7l0.6-0.9l333.9,190.8L1465.6,252.4z M1305.7,199.7l155.2,50
					L1137.8,65L1305.7,199.7z"/>
			</g>
			<g>
				<polygon class="st4" points="1167.6,-44.3 1166.4,-44.3 1303.6,197.9 1132.5,60.7 1134.2,-44.3 1133,-44.3 1131.3,61.3 
					1305,200.6 1305.3,201 1306.3,200.2 1305.9,199.8 				"/>
			</g>
			<g>
				<polygon class="st4" points="767.7,-44.3 835.5,38.3 680.2,-44.3 677.8,-44.3 837.5,40.5 838.2,39.7 769.1,-44.3 				"/>
			</g>
			<g>
				<polygon class="st4" points="989.4,-44.3 838.4,39.1 841,1 984.7,-44.3 980.9,-44.3 840.3,0 840,0.2 837.1,41 991.7,-44.3 				
					"/>
			</g>
			<g>
				<polygon class="st4" points="989.4,-44.3 837.9,39.3 769.1,-44.3 767.7,-44.3 837.3,40.4 837.7,40.7 991.7,-44.3 				"/>
			</g>
			<g>
				<path class="st4" d="M1049.4,182.9L1049.4,182.9L1049.4,182.9L1049.4,182.9l-90.7-63L840.2,1l0.8-0.8L1050.1,182L1049.4,182.9z
					 M852,11.3L959.3,119l82,57.1L852,11.3z"/>
			</g>
			<g>
				<polygon class="st4" points="1001.6,-44.3 1048.7,180.8 841.7,0.8 984.7,-44.3 980.9,-44.3 839.4,0.4 1050.4,183.8 
					1002.7,-44.3 				"/>
			</g>
			<g>
				<path class="st4" d="M1180.2,465.7L958.1,119l0.7-0.3l173.6-58.5l0.1,0.7l48.8,404.3L1180.2,465.7z M959.9,119.6l220,343.4
					l-48.4-401.2L959.9,119.6z"/>
			</g>
			<g>
				<path class="st4" d="M1049.7,183.1l-92-64l173.8-58.6l0.2-0.3l0.3,0.1l1.3-0.4l-0.5,0.9l0.6,0.4l-1.1,0.4L1049.7,183.1z
					 M960.2,119.5l89.2,62l81.1-119.5L960.2,119.5z"/>
			</g>
			<g>
				<path class="st4" d="M1180.9,465.9l-0.5-1l286-214.2v1.3l-0.1,0.2l-113.6,135.2l-0.1,0.1L1180.9,465.9z M1462.3,255.2
					l-277.1,207.5l166.8-76.2L1462.3,255.2z"/>
			</g>
			<g>
				<path class="st4" d="M1180.2,466.4L1131.2,60l1,0.5l334.7,191.3l-0.7,0.5L1180.2,466.4z M1132.6,62.1l48.5,402.3l283.7-212.4
					L1132.6,62.1z"/>
			</g>
			<g>
				<polygon class="st4" points="614.3,-44.3 575.4,75.9 527.3,-44.3 526,-44.3 575.5,79.1 615.5,-44.3 				"/>
			</g>
			<g>
				<path class="st4" d="M586.7,136.6L574.7,77l0.6-0.1l262.3-37.5l0.5-0.2l0.4,1.2l-0.6,0.1L586.7,136.6z M576.1,78l11.5,57.2
					L833,41.3L576.1,78z"/>
			</g>
			<g>
				<polygon class="st4" points="680.2,-44.3 677.8,-44.3 836,39.7 576.3,76.8 615.5,-44.3 614.3,-44.3 574.7,78.2 837.8,40.6 
					838.6,40.5 838.2,39.7 				"/>
			</g>
			<g>
				<path class="st4" d="M769,137.2h-0.4l-181.5-0.7l-0.3-1.1L840.4,0l1,0.2L841,0.9L769,137.2z M589.3,135.4l179,0.6L839.2,1.9
					L589.3,135.4z"/>
			</g>
			<g>
				<path class="st4" d="M587.3,136.5l-0.4-1L840.4,0.1l0.7,0.1v0.5l-2.8,39.8L587.3,136.5z M839.9,1.5L595.2,132.2l242-92.6
					L839.9,1.5z"/>
			</g>
			<g>
				<path class="st4" d="M1024,379.5L767.4,136.1l191.5-17.4l0.5-0.2v0.6L1024,379.5z M769.9,137L1022,376l-63.5-256.2L769.9,137z"
					/>
			</g>
			<g>
				<path class="st4" d="M767.6,137.3L840.3-0.3L960,119.6l-0.9,0.3L767.6,137.3z M840.7,1.5l-71,134.4l188.2-17.1L840.7,1.5z"/>
			</g>
			<g>
				<path class="st4" d="M1150.9,625.2l-129.2-249l159.3,88.5l-0.3,0.4l0.5,0.2L1150.9,625.2z M1024.3,379.1l126,242.7l29.7-156.3
					L1024.3,379.1z"/>
			</g>
			<g>
				<path class="st4" d="M1180.9,466.1l-0.5-0.3l-157.9-87.7l-0.1-0.3l-64-258.4l1-0.4l221.9,346.3L1180.9,466.1z M1023.5,377.3
					l155.5,86.4L960.4,122.4L1023.5,377.3z"/>
			</g>
			<g>
				<path class="st4" d="M1337.8,657.8l-0.6-0.1L1149.6,624L1353,385.4l-0.1,1.7L1337.8,657.8z M1151.7,623.2l185.1,33.2l14.9-267.8
					L1151.7,623.2z"/>
			</g>
			<g>
				<path class="st4" d="M1149.7,625.6l30.5-160.6l0.3-0.1l172-78.6l0.6,0.6l-0.4,0.4L1149.7,625.6z M1181.2,465.8l-29.6,155.8
					l198.7-233.1L1181.2,465.8z"/>
			</g>
			<g>
				<polygon class="st4" points="516.4,-44.3 365.1,38.5 170.9,30.1 509.2,-44.3 504,-44.3 166.5,29.9 166.6,31 365.2,39.6 
					365.3,39.6 518.8,-44.3 				"/>
			</g>
			<g>
				<path class="st4" d="M564.7,208.4L363.2,38.2L576,77.1L564.7,208.4z M367.1,39.9l196.6,166.1l11-128.2L367.1,39.9z"/>
			</g>
			<g>
				<polygon class="st4" points="527.3,-44.3 526,-44.3 574.6,76.8 366.9,38.8 518.8,-44.3 516.4,-44.3 363.6,39.3 575.4,78.1 
					576.7,78.3 575.9,77.3 				"/>
			</g>
			<g>
				<path class="st4" d="M669.1,289.6l-105.5-82.2l0.1-0.4l22.8-71.4l0.5,0.2l0.4-0.3L669.9,289L669.1,289.6z M564.9,207l102.7,80.1
					l-80.4-149.8L564.9,207z"/>
			</g>
			<g>
				<path class="st4" d="M564.8,207.4l-1.1-0.3l11.2-129.8l1.1-0.1l11.7,58.6l-0.1,0.1L564.8,207.4z M575.6,81.5l-10.4,120.9
					l21.3-66.5L575.6,81.5z"/>
			</g>
			<g>
				<path class="st4" d="M786.5,482.9L668.8,289.2l0.2-0.3l99.4-152.8l0.9-0.2v0.6l18.3,346L786.5,482.9z M670,289.3l116.2,191.3
					l-18-342.1L670,289.3z"/>
			</g>
			<g>
				<path class="st4" d="M669.4,290.3l-83.2-154.9l182.5,0.7l0.1,0.6l0.4,0.3L669.4,290.3z M588.1,136.5l81.4,151.6l98.1-150.9
					L588.1,136.5z"/>
			</g>
			<g>
				<path class="st4" d="M1042.3,612.8L785.6,482.6l237.9-105.7l0.1,0.8L1042.3,612.8z M788.2,482.7L1041,610.8l-18.5-232.3
					L788.2,482.7z"/>
			</g>
			<g>
				<path class="st4" d="M786.4,483.5v-0.8L768,135.2l1,1L1024,378l-0.8,0.4L786.4,483.5z M769.3,138l18.1,343.9L1022,377.6
					L769.3,138z"/>
			</g>
			<g>
				<path class="st4" d="M674.1,290l0.7-0.2l311.8-90.4l-0.7,1l-169,264.3l-0.5-0.6L674.1,290z M980.1,202.4l-309.2,86.2
					l149.4,178.6L980.1,202.4z"/>
			</g>
			<g>
				<path class="st4" d="M1128.2,755.7l-87.7-144.5l110.7,12l-0.1,0.5L1128.2,755.7z M1042.7,612.5l85,140.1l22.3-128.5
					L1042.7,612.5z"/>
			</g>
			<g>
				<path class="st4" d="M1151.6,624.3l-1.1-0.1L1041,612.3v-0.4l-18.6-234.1l1.1-0.3L1151.6,624.3z M1042.1,611.3l107.5,11.6
					l-125.9-242.5L1042.1,611.3z"/>
			</g>
			<g>
				<path class="st4" d="M1127.2,755.1l0.2-1.1l22.8-131.1l0.5,0.1l186.9,33.6l0.3,0.8l-0.4,0.2L1127.2,755.1z M1151.2,624.3
					l-22.4,129l206.7-95.8L1151.2,624.3z"/>
			</g>
			<g>
				<path class="st4" d="M113.7,90.5l-0.9-0.6l48.3-85.7l6.1,26.4l-0.2,0.2L113.7,90.5z M160.6,7.2l-44.4,78.7L166,30.3L160.6,7.2z"
					/>
			</g>
			<g>
				<path class="st4" d="M383.2,342.4l-1-1L112.1,89.8l253.6-51.5V39L383.2,342.4z M114.4,90.5l267.4,249.2l-17.2-300L114.4,90.5z"
					/>
			</g>
			<g>
				<path class="st4" d="M111.8,91.1l54.6-61.2h0.3l198.6,8.6l0.1,1.1L111.8,91.1z M166.9,31l-52,58.3l245.8-49.9L166.9,31z"/>
			</g>
			<g>
				<path class="st4" d="M411.7,358.9l-30.2-17.9l182.6-134.4l1.2,0.3l-0.7,0.7L411.7,358.9z M383.6,341l28,16.5l146.9-145.3
					L383.6,341z"/>
			</g>
			<g>
				<path class="st4" d="M382,342.1L364.5,37.8l1,0.8l200.7,169.6l-1.9-0.4L382,342.1z M365.8,40.3L383,340l180.3-132.8L365.8,40.3z
					"/>
			</g>
			<g>
				<path class="st4" d="M488.4,489.7l-0.4-0.6L410.8,358l0.7-0.2l257.8-69.1l1.5-0.2l-1,1.2L488.4,489.7z M412.5,358.6l76,129.2
					l179.2-197.6L412.5,358.6z"/>
			</g>
			<g>
				<path class="st4" d="M409.8,359.4l1.5-1.5l153-151.4l106.6,83.1l-1.3,0.2L409.8,359.4z M564.3,208L413.5,357.2L668.2,289
					L564.3,208z"/>
			</g>
			<g>
				<path class="st4" d="M754.7,726l-0.8-0.7L487,488.2l300.5-6.1l-0.1,0.6L754.7,726z M489.9,489.2l264.1,234.6l32.4-240.6
					L489.9,489.2z"/>
			</g>
			<g>
				<path class="st4" d="M487.1,489.3l0.9-1l181.5-200.1l0.4,0.6l118,194.3h-1L487.1,489.3z M669.3,290.1l-179.6,198l296.2-6
					L669.3,290.1z"/>
			</g>
			<g>
				<path class="st4" d="M885.7,730.7h-0.2l-131.3-5.2l-0.2-1.1l287.2-113.1l0.3-0.2l1.4,0.7l-1.1,0.4L885.7,730.7z M757,724.5
					l128.4,5.1L1038,613.9L757,724.5z"/>
			</g>
			<g>
				<path class="st4" d="M753.7,725.9l32.8-244l0.7,0.4L1043,612l-1.2,0.4L753.7,725.9z M787.4,483.5L755,724.1l285.2-112.3
					L787.4,483.5z"/>
			</g>
			<g>
				<path class="st4" d="M1129,754.7l-1.1-0.1l-243.8-24.2l157.7-119.5L1129,754.7z M887.1,729.7l239.8,23.7l-85.5-140.8
					L887.1,729.7z"/>
			</g>
			<g>
				<path class="st4" d="M124.7,299.7L-61,156.1l174.8-66.8v0.8L124.7,299.7z M-58.7,156.5l182.3,140.9L112.8,91L-58.7,156.5z"/>
			</g>
			<g>
				<path class="st4" d="M354.2,381L123.9,299l0.3-1.1l259.4,42.8l-0.8,0.8L354.2,381z M130.2,300.1l223.7,79.6l27.7-38.1
					L130.2,300.1z"/>
			</g>
			<g>
				<path class="st4" d="M384.3,342l-1.9-0.3L123.6,299v-0.4L112.6,88.8l1,1L384.3,342z M124.6,298.1l256.2,42.2L113.9,91.5
					L124.6,298.1z"/>
			</g>
			<g>
				<path class="st4" d="M438,389.2l-84-8.3l-0.2-1.1l58-22.2L438,389.2z M356.5,380l79,7.8l-24-28.9L356.5,380z"/>
			</g>
			<g>
				<path class="st4" d="M352.5,381.5l29.9-41.2l30.6,18L352.5,381.5z M382.7,341.8l-27.1,37.3l54.8-21L382.7,341.8z"/>
			</g>
			<g>
				<path class="st4" d="M580.1,767.1L436.2,388.7l1-0.4l51.6,100.3l-0.3,0.1l0.3-0.1L581,766.7L580.1,767.1z M440.8,397.5
					l131.2,345L487.9,489L440.8,397.5z"/>
			</g>
			<g>
				<path class="st4" d="M487.9,489L487.9,489L487.9,489L487.9,489l-76.8-130.5l0.9-0.6l25.1,30.2l51.8,100.4v0.2L487.9,489z
					 M415.6,363.9l63.1,107.4l-42.6-82.5L415.6,363.9z"/>
			</g>
			<g>
				<path class="st4" d="M580.3,767.6l-0.2-0.5l-92.9-280.2l1.6,1.3l265.8,236.2l1.3,0.6l-1.5,0.4L580.3,767.6z M489.6,490.6
					L581,766.3l172.2-41.6L489.6,490.6z"/>
			</g>
			<g>
				<path class="st4" d="M175,590.7l-0.4-0.2l-78.5-34.8l0.8-0.5l257.8-176v1.2l-0.1,0.2L175,590.7z M98.3,555.6l76.4,33.8
					l176.3-206.2L98.3,555.6z"/>
			</g>
			<g>
				<path class="st4" d="M96.6,556.8l27.1-259.1l0.7,0.3l231,82.2l-0.9,0.6L96.6,556.8z M124.6,299.3L97.9,554.6l255-174
					L124.6,299.3z"/>
			</g>
			<g>
				<path class="st4" d="M405.2,813.8l-0.9-0.9L174,590l262.6-202l0.7-0.2v0.8L405.2,813.8z M175.7,590.1l228.7,221.2l31.7-421.7
					L175.7,590.1z"/>
			</g>
			<g>
				<path class="st4" d="M175.1,590.5l-0.8-0.8l179.5-209.9h0.3l82.7,8.2l0.1,0.7l0.3,0.3L175.1,590.5z M354.3,380.9L178.7,586.4
					L435.3,389L354.3,380.9z"/>
			</g>
			<g>
				<path class="st4" d="M404.2,813.2l0.1-0.8l31.9-424.1l1.1-0.2l143.8,378.3l0.5,0.6l-0.9,0.3L404.2,813.2z M437.1,391
					l-31.6,420.8l174.4-45.2L437.1,391z"/>
			</g>
		</g>
		<g>
			<path class="st5" d="M1055.6,179.2c0,4.1-3.3,7.4-7.4,7.4c-4.1,0-7.4-3.3-7.4-7.4c0-4.1,3.3-7.4,7.4-7.4
				C1052.3,171.8,1055.6,175.1,1055.6,179.2z"/>
			<path class="st5" d="M1137.2,57.9c0,3.6-3,6.7-6.7,6.7s-6.7-3-6.7-6.7s3-6.7,6.7-6.7C1134.3,51.2,1137.2,54.3,1137.2,57.9z"/>
			<path class="st5" d="M1054.8,179.2c0,3.6-2.9,6.6-6.6,6.6s-6.6-2.9-6.6-6.6s2.9-6.6,6.6-6.6
				C1051.9,172.6,1054.8,175.6,1054.8,179.2z"/>
			<path class="st5" d="M1052,179.2c0,2-1.7,3.7-3.7,3.7s-3.8-1.7-3.8-3.7c0-2,1.7-3.7,3.8-3.7C1050.4,175.5,1052,177.2,1052,179.2z
				"/>
			<path class="st5" d="M1136,57.9c0,2.9-2.4,5.4-5.4,5.4c-2.9,0-5.4-2.4-5.4-5.4c0-2.9,2.4-5.3,5.4-5.3S1136,55,1136,57.9z"/>
			<path class="st5" d="M1136.1,57.9c0,3.1-2.5,5.6-5.6,5.6c-3.1,0-5.6-2.5-5.6-5.6c0-3.1,2.5-5.6,5.6-5.6
				C1133.6,52.3,1136.1,54.9,1136.1,57.9z"/>
			<path class="st5" d="M841.9,36.9c0,3-2.5,5.5-5.5,5.5s-5.5-2.5-5.5-5.5c0-3,2.5-5.5,5.5-5.5C839.4,31.4,841.9,33.9,841.9,36.9z"
				/>
			<path class="st5" d="M993.3-47.4c1.6,1.7,3.7,2.8,6.3,2.8c2.5,0,4.7-1.1,6.2-2.8H993.3z"/>
			<path class="st5" d="M844.2-2.5c0,2.8-2.2,5.1-5.1,5.1c-2.8,0-5.1-2.2-5.1-5.1c0-2.8,2.2-5.1,5.1-5.1
				C842-7.6,844.2-5.3,844.2-2.5z"/>
			<path class="st5" d="M841.8,36.9c0,3-2.4,5.4-5.4,5.4s-5.4-2.4-5.4-5.4c0-3,2.4-5.4,5.4-5.4S841.8,33.9,841.8,36.9z"/>
			<path class="st5" d="M994.9-47.4c1.3,1.1,2.9,1.7,4.7,1.7s3.5-0.6,4.7-1.7H994.9z"/>
			<path class="st5" d="M841.4,36.9c0,2.8-2.2,5-5,5c-2.8,0-5-2.2-5-5c0-2.8,2.2-5,5-5C839.2,31.9,841.4,34.2,841.4,36.9z"/>
			<path class="st5" d="M1052.3,179.2c0,2.2-1.8,4-4,4s-4-1.8-4-4c0-2.2,1.8-4,4-4S1052.3,177,1052.3,179.2z"/>
			<path class="st5" d="M964.7,116.2c0,3.9-3.1,7-7,7c-3.9,0-7-3.1-7-7s3.1-7,7-7C961.6,109.2,964.7,112.3,964.7,116.2z"/>
			<path class="st5" d="M848.8-2.5c0,5.3-4.3,9.6-9.6,9.6c-5.3,0-9.6-4.3-9.6-9.6s4.3-9.6,9.6-9.6C844.5-12.1,848.8-7.8,848.8-2.5z"
				/>
			<path class="st5" d="M1054.9,179.2c0,3.6-2.9,6.6-6.6,6.6s-6.6-2.9-6.6-6.6s2.9-6.6,6.6-6.6
				C1051.9,172.6,1054.9,175.6,1054.9,179.2z"/>
			<path class="st5" d="M1054.4,179.2c0,3.4-2.8,6.2-6.2,6.2s-6.2-2.8-6.2-6.2c0-3.5,2.8-6.2,6.2-6.2S1054.4,175.8,1054.4,179.2z"/>
			<path class="st5" d="M993.6-47.4c1.5,1.6,3.6,2.7,6,2.7s4.5-1,6-2.7H993.6z"/>
			<path class="st5" d="M845.9-2.5c0,3.7-3,6.8-6.8,6.8c-3.7,0-6.8-3-6.8-6.8s3-6.8,6.8-6.8C842.9-9.3,845.9-6.3,845.9-2.5z"/>
			<path class="st5" d="M1054.8,179.2c0,3.6-2.9,6.6-6.6,6.6s-6.6-2.9-6.6-6.6s2.9-6.6,6.6-6.6
				C1051.9,172.6,1054.8,175.6,1054.8,179.2z"/>
			<path class="st5" d="M1136,57.9c0,3-2.4,5.4-5.4,5.4c-3,0-5.5-2.4-5.5-5.4c0-3,2.5-5.4,5.5-5.4C1133.6,52.5,1136,54.9,1136,57.9z
				"/>
			<path class="st5" d="M1188.5,462.2c0,5.1-4.1,9.1-9.1,9.1c-5.1,0-9.2-4.1-9.2-9.1c0-5.1,4.1-9.1,9.2-9.1
				C1184.4,453.2,1188.5,457.2,1188.5,462.2z"/>
			<path class="st5" d="M966.4,116.2c0,4.8-3.9,8.7-8.7,8.7s-8.7-3.9-8.7-8.7c0-4.8,3.9-8.7,8.7-8.7S966.4,111.4,966.4,116.2z"/>
			<path class="st5" d="M1135.4,57.9c0,2.7-2.2,4.9-4.9,4.9s-4.9-2.2-4.9-4.9c0-2.7,2.2-4.9,4.9-4.9
				C1133.3,53,1135.4,55.2,1135.4,57.9z"/>
			<path class="st5" d="M1136.4,57.9c0,3.2-2.6,5.8-5.8,5.8s-5.8-2.6-5.8-5.8c0-3.2,2.6-5.8,5.8-5.8
				C1133.7,52.1,1136.4,54.7,1136.4,57.9z"/>
			<path class="st5" d="M1053,179.2c0,2.7-2.1,4.8-4.8,4.8s-4.8-2.1-4.8-4.8c0-2.7,2.1-4.8,4.8-4.8S1053,176.6,1053,179.2z"/>
			<path class="st5" d="M964.4,116.2c0,3.7-3,6.8-6.8,6.8s-6.8-3-6.8-6.8c0-3.7,3-6.8,6.8-6.8S964.4,112.5,964.4,116.2z"/>
			<ellipse class="st5" cx="1130.5" cy="57.9" rx="6.7" ry="6.7"/>
			<path class="st5" d="M1183,462.2c0,2-1.6,3.6-3.6,3.6s-3.6-1.6-3.6-3.6c0-2,1.6-3.6,3.6-3.6C1181.4,458.6,1183,460.2,1183,462.2z
				"/>
			<path class="st5" d="M1135.8,57.9c0,2.9-2.3,5.2-5.2,5.2c-2.9,0-5.2-2.3-5.2-5.2c0-2.8,2.3-5.2,5.2-5.2
				C1133.5,52.7,1135.8,55.1,1135.8,57.9z"/>
			<path class="st5" d="M1183.5,462.2c0,2.3-1.9,4.2-4.2,4.2s-4.2-1.9-4.2-4.2c0-2.3,1.9-4.1,4.2-4.1
				C1181.6,458.1,1183.5,459.9,1183.5,462.2z"/>
			<path class="st5" d="M518.2-47.4c1.2,1.7,3.2,2.8,5.5,2.8c2.2,0,4.3-1.1,5.5-2.8H518.2z"/>
			<path class="st5" d="M581.1,74.4c0,3.8-3.1,6.9-6.9,6.9s-6.9-3.1-6.9-6.9s3.1-6.9,6.9-6.9S581.1,70.6,581.1,74.4z"/>
			<path class="st5" d="M519.2-47.4c1.2,1.2,2.7,2,4.5,2c1.8,0,3.4-0.8,4.5-2H519.2z"/>
			<path class="st5" d="M844.2,36.9c0,4.4-3.5,7.8-7.8,7.8s-7.8-3.5-7.8-7.8s3.6-7.8,7.8-7.8C840.8,29.1,844.2,32.6,844.2,36.9z"/>
			<path class="st5" d="M593.4,132.8c0,4.2-3.4,7.6-7.6,7.6c-4.2,0-7.6-3.4-7.6-7.6c0-4.2,3.4-7.6,7.6-7.6
				C589.9,125.2,593.4,128.6,593.4,132.8z"/>
			<path class="st5" d="M580.7,74.4c0,3.6-2.9,6.6-6.6,6.6c-3.6,0-6.6-2.9-6.6-6.6c0-3.6,2.9-6.6,6.6-6.6
				C577.8,67.8,580.7,70.8,580.7,74.4z"/>
			<path class="st5" d="M843.7,36.9c0,4-3.3,7.3-7.3,7.3c-4,0-7.3-3.3-7.3-7.3s3.3-7.3,7.3-7.3C840.5,29.6,843.7,32.9,843.7,36.9z"
				/>
			<path class="st5" d="M841.4,36.9c0,2.8-2.2,5-5,5c-2.8,0-5-2.2-5-5c0-2.8,2.2-5,5-5C839.2,31.9,841.4,34.2,841.4,36.9z"/>
			<path class="st5" d="M583.4,74.4c0,5.2-4.2,9.2-9.2,9.2c-5.2,0-9.2-4.2-9.2-9.2s4.2-9.2,9.2-9.2
				C579.2,65.2,583.4,69.3,583.4,74.4z"/>
			<ellipse class="st5" cx="836.4" cy="36.9" rx="4.4" ry="4.4"/>
			<path class="st5" d="M843.8-2.5c0,2.6-2,4.6-4.6,4.6s-4.6-2-4.6-4.6s2-4.6,4.6-4.6S843.8-5,843.8-2.5z"/>
			<path class="st5" d="M774.6,133.4c0,4-3.2,7.2-7.2,7.2c-4,0-7.2-3.2-7.2-7.2s3.2-7.2,7.2-7.2
				C771.3,126.2,774.6,129.5,774.6,133.4z"/>
			<path class="st5" d="M589.4,132.8c0,2-1.6,3.6-3.6,3.6c-2,0-3.6-1.6-3.6-3.6c0-2,1.6-3.6,3.6-3.6
				C587.8,129.2,589.4,130.8,589.4,132.8z"/>
			<path class="st5" d="M845.1-2.5c0,3.3-2.7,6-6,6c-3.3,0-6-2.7-6-6s2.7-6,6-6C842.5-8.5,845.1-5.8,845.1-2.5z"/>
			<path class="st5" d="M842.6-2.5c0,1.9-1.5,3.5-3.5,3.5c-1.9,0-3.5-1.5-3.5-3.5s1.5-3.5,3.5-3.5C841-5.9,842.6-4.4,842.6-2.5z"/>
			<path class="st5" d="M840.3,36.9c0,2.1-1.7,3.8-3.8,3.8c-2.1,0-3.8-1.7-3.8-3.8c0-2.1,1.7-3.8,3.8-3.8
				C838.5,33.1,840.3,34.8,840.3,36.9z"/>
			<ellipse class="st5" cx="585.8" cy="132.8" rx="5.1" ry="5"/>
			<path class="st5" d="M844-2.5c0,2.7-2.1,4.8-4.9,4.8c-2.7,0-4.8-2.1-4.8-4.8s2.1-4.8,4.8-4.8C841.8-7.3,844-5.2,844-2.5z"/>
			<path class="st5" d="M965.7,116.2c0,4.4-3.6,8-8,8s-8-3.6-8-8s3.6-8,8-8S965.7,111.8,965.7,116.2z"/>
			<path class="st5" d="M1028.3,374.7c0,3.6-2.9,6.6-6.6,6.6c-3.6,0-6.6-2.9-6.6-6.6s2.9-6.6,6.6-6.6
				C1025.3,368,1028.3,371,1028.3,374.7z"/>
			<path class="st5" d="M775.7,133.4c0,4.6-3.7,8.4-8.4,8.4c-4.6,0-8.4-3.7-8.4-8.4s3.7-8.4,8.4-8.4
				C772,125.1,775.7,128.8,775.7,133.4z"/>
			<path class="st5" d="M964.2,116.2c0,3.6-2.9,6.6-6.6,6.6s-6.6-2.9-6.6-6.6c0-3.6,2.9-6.6,6.6-6.6
				C961.3,109.6,964.2,112.6,964.2,116.2z"/>
			<path class="st5" d="M965.8,116.2c0,4.5-3.6,8.2-8.2,8.2s-8.2-3.6-8.2-8.2c0-4.5,3.6-8.2,8.2-8.2
				C962.2,108,965.8,111.7,965.8,116.2z"/>
			<path class="st5" d="M844.7-2.5c0,3-2.5,5.5-5.5,5.5s-5.5-2.5-5.5-5.5s2.5-5.5,5.5-5.5S844.7-5.6,844.7-2.5z"/>
			<path class="st5" d="M772.6,133.4c0,2.9-2.3,5.2-5.2,5.2c-2.9,0-5.2-2.3-5.2-5.2c0-2.9,2.4-5.2,5.2-5.2
				C770.2,128.2,772.6,130.6,772.6,133.4z"/>
			<path class="st5" d="M969.8,115.6c0.3,6.9-5.2,12.7-12.2,12.7c-6.8,0-12.2-5.4-12.2-12.1c0-6.5,5.2-11.9,11.8-12.1
				C963.8,103.9,969.5,109.1,969.8,115.6z"/>
			<path class="st5" d="M940.9,284.5c0.3,6.9-5.2,12.7-12.2,12.7c-6.8,0-12.2-5.4-12.2-12.1c0-6.5,5.2-11.9,11.8-12.1
				C934.8,272.8,940.6,278,940.9,284.5z"/>
			<path class="st5" d="M782.3,260.3c0.2,4.1-3.1,7.4-7.1,7.4c-4,0-7.1-3.2-7.1-7.1c0-3.8,3-7,6.9-7.1
				C778.7,253.4,782.1,256.4,782.3,260.3z"/>
			<path class="st5" d="M1183.6,462.2c0,2.3-2,4.3-4.3,4.3c-2.4,0-4.3-1.9-4.3-4.3c0-2.3,1.9-4.3,4.3-4.3
				C1181.7,458,1183.6,459.9,1183.6,462.2z"/>
			<path class="st5" d="M1153.7,620.5c0,2.4-2,4.4-4.4,4.4c-2.4,0-4.4-2-4.4-4.4s2-4.4,4.4-4.4
				C1151.8,616.1,1153.7,618,1153.7,620.5z"/>
			<path class="st5" d="M1028.4,374.7c0,3.7-3,6.7-6.7,6.7c-3.7,0-6.7-3-6.7-6.7s3-6.7,6.7-6.7
				C1025.4,367.9,1028.4,370.9,1028.4,374.7z"/>
			<path class="st5" d="M1187.1,462.2c0,4.3-3.5,7.7-7.7,7.7s-7.7-3.5-7.7-7.7s3.5-7.7,7.7-7.7
				C1183.6,454.5,1187.1,458,1187.1,462.2z"/>
			<path class="st5" d="M1185.1,462.2c0,3.2-2.6,5.7-5.7,5.7c-3.2,0-5.8-2.6-5.8-5.7c0-3.2,2.6-5.7,5.8-5.7
				C1182.5,456.5,1185.1,459.1,1185.1,462.2z"/>
			<path class="st5" d="M962,115c1.1,4.1-3.6,7.8-7.7,4.5c-3.2-4.1,0.4-8.8,4.5-7.7C960.4,112.2,961.6,113.5,962,115z"/>
			<path class="st5" d="M1025.6,374.7c0,2.2-1.8,4-4,4c-2.2,0-4-1.8-4-4s1.8-4,4-4C1023.9,370.7,1025.6,372.5,1025.6,374.7z"/>
			<path class="st5" d="M1183.5,462.2c0,2.3-1.9,4.2-4.2,4.2s-4.2-1.9-4.2-4.2c0-2.3,1.9-4.2,4.2-4.2S1183.5,459.9,1183.5,462.2z"/>
			<path class="st5" d="M1156.7,620.5c0,4.1-3.4,7.5-7.5,7.5s-7.5-3.3-7.5-7.5s3.4-7.5,7.5-7.5
				C1153.5,613.1,1156.7,616.3,1156.7,620.5z"/>
			<path class="st5" d="M1187.1,462.2c0,4.3-3.5,7.7-7.7,7.7c-4.3,0-7.7-3.5-7.7-7.7s3.5-7.7,7.7-7.7
				C1183.6,454.5,1187.1,458,1187.1,462.2z"/>
			<path class="st5" d="M1156.1,620.5c0,3.7-3,6.8-6.8,6.8c-3.7,0-6.8-3-6.8-6.8c0-3.7,3-6.8,6.8-6.8
				C1153.1,613.7,1156.1,616.7,1156.1,620.5z"/>
			<path class="st5" d="M517.1-47.4c1.3,2.1,3.7,3.6,6.5,3.6c2.8,0,5.2-1.4,6.5-3.6H517.1z"/>
			<path class="st5" d="M369.7,35.9c0,3.2-2.7,5.9-5.9,5.9c-3.3,0-5.9-2.7-5.9-5.9s2.7-5.9,5.9-5.9
				C367.1,30.1,369.7,32.7,369.7,35.9z"/>
			<path class="st5" d="M170.9,27.3c0,3.1-2.5,5.6-5.6,5.6s-5.6-2.5-5.6-5.6s2.5-5.6,5.6-5.6C168.4,21.7,170.9,24.2,170.9,27.3z"/>
			<path class="st5" d="M516.4-47.4c1.4,2.6,4.1,4.3,7.3,4.3c3.1,0,5.9-1.8,7.3-4.3H516.4z"/>
			<path class="st5" d="M581.4,74.4c0,4-3.3,7.3-7.3,7.3c-4,0-7.3-3.3-7.3-7.3s3.3-7.3,7.3-7.3C578.1,67.1,581.4,70.3,581.4,74.4z"
				/>
			<path class="st5" d="M568,204.1c0,2.8-2.3,5.1-5.1,5.1c-2.8,0-5.1-2.2-5.1-5.1c0-2.8,2.2-5.1,5.1-5.1
				C565.7,199.1,568,201.4,568,204.1z"/>
			<path class="st5" d="M370.7,35.9c0,3.7-3,6.8-6.8,6.8c-3.7,0-6.8-3-6.8-6.8c0-3.7,3-6.8,6.8-6.8
				C367.6,29.1,370.7,32.2,370.7,35.9z"/>
			<path class="st5" d="M583.7,74.4c0,5.3-4.4,9.6-9.7,9.6c-5.3,0-9.7-4.4-9.7-9.6c0-5.3,4.4-9.6,9.7-9.6
				C579.5,64.7,583.7,69.1,583.7,74.4z"/>
			<path class="st5" d="M578.4,74.4c0,2.4-1.9,4.3-4.3,4.3c-2.3,0-4.3-1.9-4.3-4.3c0-2.3,2-4.3,4.3-4.3
				C576.4,70.2,578.4,72,578.4,74.4z"/>
			<path class="st5" d="M519.6-47.4c1.1,1.1,2.5,1.7,4.1,1.7c1.6,0,3-0.6,4.1-1.7H519.6z"/>
			<path class="st5" d="M368.2,35.9c0,2.4-2,4.3-4.3,4.3c-2.4,0-4.3-2-4.3-4.3c0-2.4,2-4.3,4.3-4.3
				C366.2,31.7,368.2,33.5,368.2,35.9z"/>
			<path class="st5" d="M582.1,74.4c0,4.4-3.6,8.1-8.1,8.1c-4.4,0-8.1-3.6-8.1-8.1s3.6-8.1,8.1-8.1C578.6,66.3,582.1,70,582.1,74.4z
				"/>
			<path class="st5" d="M597.7,132.8c0,6.6-5.3,11.8-11.9,11.8c-6.6,0-11.9-5.3-11.9-11.8c0-6.6,5.3-11.8,11.9-11.8
				C592.3,120.9,597.7,126.2,597.7,132.8z"/>
			<path class="st5" d="M675.5,286.1c0,4.1-3.4,7.5-7.5,7.5c-4.2,0-7.5-3.4-7.5-7.5c0-4.2,3.4-7.5,7.5-7.5
				C672.2,278.6,675.5,282,675.5,286.1z"/>
			<path class="st5" d="M569.8,204.1c0,3.7-3,6.8-6.8,6.8c-3.7,0-6.8-3-6.8-6.8c0-3.7,3-6.8,6.8-6.8
				C566.7,197.4,569.8,200.4,569.8,204.1z"/>
			<path class="st5" d="M591.4,132.8c0,3-2.5,5.5-5.6,5.5c-3,0-5.6-2.5-5.6-5.5c0-3,2.5-5.5,5.6-5.5
				C588.9,127.2,591.4,129.7,591.4,132.8z"/>
			<path class="st5" d="M591.6,132.8c0,3.3-2.7,5.9-5.9,5.9c-3.3,0-5.9-2.7-5.9-5.9s2.7-5.9,5.9-5.9
				C589.1,127,591.6,129.5,591.6,132.8z"/>
			<path class="st5" d="M581.1,74.4c0,3.8-3.1,6.9-6.9,6.9s-6.9-3.1-6.9-6.9s3.1-6.9,6.9-6.9S581.1,70.6,581.1,74.4z"/>
			<path class="st5" d="M574.4,204.1c0,6.3-5.2,11.5-11.6,11.5c-6.4,0-11.6-5.2-11.6-11.5c0-6.3,5.2-11.5,11.6-11.5
				C569.2,192.6,574.4,197.8,574.4,204.1z"/>
			<path class="st5" d="M892.2,497.2c0,3.8-3.1,6.9-7,6.9c-3.9,0-7-3.1-7-6.9s3.1-6.9,7-6.9C889.1,490.2,892.2,493.3,892.2,497.2z"
				/>
			<path class="st5" d="M991.2,583c0,3.8-3.1,6.9-7,6.9c-3.9,0-7-3.1-7-6.9c0-3.8,3.1-6.9,7-6.9C988,576,991.2,579.1,991.2,583z"/>
			<path class="st5" d="M652.7,483.8c0,3.8-3.1,6.9-7,6.9c-3.9,0-7-3.1-7-6.9c0-3.8,3.1-6.9,7-6.9
				C649.6,476.9,652.7,480,652.7,483.8z"/>
			<path class="st5" d="M621.9,301c0,3.8-3.1,6.9-7,6.9c-3.9,0-7-3.1-7-6.9c0-3.8,3.1-6.9,7-6.9C618.8,294.1,621.9,297.2,621.9,301z
				"/>
			<path class="st5" d="M638.8,363.7c0,3.8-3.1,6.9-7,6.9c-3.9,0-7-3.1-7-6.9c0-3.8,3.1-6.9,7-6.9
				C635.6,356.8,638.8,359.9,638.8,363.7z"/>
			<path class="st5" d="M581.4,312.9c0,3.8-3.1,6.9-7,6.9c-3.9,0-7-3.1-7-6.9c0-3.8,3.1-6.9,7-6.9
				C578.3,306,581.4,309.1,581.4,312.9z"/>
			<path class="st5" d="M517.4,250.8c0,5.5-4.5,9.9-10,9.9s-10-4.5-10-9.9s4.5-9.9,10-9.9S517.4,245.4,517.4,250.8z"/>
			<path class="st5" d="M877.1,230.2c0,3.8-3.1,6.9-7,6.9c-3.9,0-7-3.1-7-6.9c0-3.8,3.1-6.9,7-6.9
				C874,223.3,877.1,226.4,877.1,230.2z"/>
			<path class="st5" d="M985,199.7c0,3.8-3.1,6.9-7,6.9c-3.9,0-7-3.1-7-6.9c0-3.8,3.1-6.9,7-6.9C981.9,192.8,985,195.9,985,199.7z"
				/>
			<path class="st5" d="M593.7,132.8c0,4.4-3.6,7.9-7.9,7.9s-7.9-3.6-7.9-7.9c0-4.4,3.6-7.9,7.9-7.9S593.7,128.5,593.7,132.8z"/>
			<ellipse class="st5" cx="767.3" cy="133.4" rx="4.7" ry="4.7"/>
			<path class="st5" d="M792,479.6c0,3.6-2.8,6.4-6.4,6.4c-3.6,0-6.4-2.8-6.4-6.4c0-3.6,2.8-6.4,6.4-6.4
				C789.1,473.2,792,476,792,479.6z"/>
			<path class="st5" d="M673.7,286.1c0,3.1-2.5,5.6-5.6,5.6s-5.6-2.5-5.6-5.6s2.5-5.6,5.6-5.6C671.2,280.5,673.7,283,673.7,286.1z"
				/>
			<path class="st5" d="M772.5,133.4c0,2.8-2.3,5.2-5.2,5.2c-2.8,0-5.2-2.3-5.2-5.2s2.3-5.2,5.2-5.2
				C770.2,128.3,772.5,130.6,772.5,133.4z"/>
			<path class="st5" d="M773.5,133.4c0,3.4-2.8,6.2-6.2,6.2c-3.5,0-6.2-2.8-6.2-6.2c0-3.5,2.8-6.2,6.2-6.2
				C770.7,127.2,773.5,130.1,773.5,133.4z"/>
			<path class="st5" d="M592.7,132.8c0,3.8-3.1,6.9-6.9,6.9s-6.9-3.1-6.9-6.9s3.1-6.9,6.9-6.9S592.7,129,592.7,132.8z"/>
			<path class="st5" d="M672.9,286.1c0,2.7-2.1,4.8-4.8,4.8s-4.8-2.1-4.8-4.8s2.1-4.8,4.8-4.8C670.7,281.3,672.9,283.5,672.9,286.1z
				"/>
			<path class="st5" d="M775.5,133.4c0,4.5-3.6,8.2-8.2,8.2c-4.5,0-8.2-3.6-8.2-8.2s3.6-8.2,8.2-8.2
				C771.8,125.3,775.5,128.9,775.5,133.4z"/>
			<path class="st5" d="M1027.4,374.7c0,3.2-2.6,5.8-5.8,5.8c-3.2,0-5.8-2.6-5.8-5.8c0-3.2,2.6-5.8,5.8-5.8
				C1024.8,368.9,1027.4,371.5,1027.4,374.7z"/>
			<ellipse class="st5" cx="1040.3" cy="608.7" rx="9.4" ry="9.4"/>
			<path class="st5" d="M792,479.6c0,3.6-2.8,6.4-6.4,6.4c-3.6,0-6.4-2.8-6.4-6.4c0-3.6,2.8-6.4,6.4-6.4
				C789.1,473.2,792,476,792,479.6z"/>
			<path class="st5" d="M1025.6,374.7c0,2.1-1.8,3.9-3.9,3.9c-2.2,0-3.9-1.8-3.9-3.9s1.8-3.9,3.9-3.9
				C1023.9,370.7,1025.6,372.5,1025.6,374.7z"/>
			<path class="st5" d="M1025.5,374.7c0,2.1-1.7,3.8-3.8,3.8c-2.1,0-3.8-1.7-3.8-3.8s1.7-3.8,3.8-3.8
				C1023.8,370.8,1025.5,372.5,1025.5,374.7z"/>
			<path class="st5" d="M775.2,133.4c0,4.4-3.6,7.9-7.9,7.9c-4.4,0-7.9-3.6-7.9-7.9c0-4.4,3.6-7.9,7.9-7.9
				C771.7,125.6,775.2,129.1,775.2,133.4z"/>
			<path class="st5" d="M796.2,479.6c0,5.9-4.8,10.7-10.7,10.7c-5.9,0-10.7-4.8-10.7-10.7s4.8-10.7,10.7-10.7
				C791.4,468.9,796.2,473.7,796.2,479.6z"/>
			<path class="st5" d="M1030.3,374.7c0,4.7-3.8,8.6-8.6,8.6c-4.7,0-8.6-3.8-8.6-8.6c0-4.7,3.8-8.6,8.6-8.6
				C1026.4,366.1,1030.3,369.9,1030.3,374.7z"/>
			<path class="st5" d="M1154.2,620.5c0,2.7-2.1,4.8-4.8,4.8s-4.8-2.1-4.8-4.8s2.1-4.8,4.8-4.8
				C1152,615.6,1154.2,617.9,1154.2,620.5z"/>
			<ellipse class="st5" cx="1040.3" cy="608.7" rx="5.2" ry="5.2"/>
			<path class="st5" d="M1156.5,620.5c0,3.9-3.2,7.1-7.2,7.1s-7.2-3.2-7.2-7.1c0-4,3.2-7.2,7.2-7.2S1156.5,616.5,1156.5,620.5z"/>
			<path class="st5" d="M1155.3,620.5c0,3.3-2.7,6-6,6c-3.3,0-6-2.7-6-6c0-3.3,2.7-6,6-6S1155.3,617.1,1155.3,620.5z"/>
			<path class="st5" d="M1028.1,374.7c0,3.6-2.8,6.5-6.5,6.5c-3.6,0-6.5-2.8-6.5-6.5c0-3.6,2.8-6.5,6.5-6.5
				C1025.2,368.2,1028.1,371.1,1028.1,374.7z"/>
			<path class="st5" d="M1043.5,608.7c0,1.8-1.4,3.2-3.3,3.2c-1.8,0-3.3-1.4-3.3-3.2s1.4-3.3,3.3-3.3
				C1042.1,605.5,1043.5,606.9,1043.5,608.7z"/>
			<ellipse class="st5" cx="1149.3" cy="620.5" rx="6.6" ry="6.6"/>
			<path class="st5" d="M1158.7,620.5c0,5.2-4.2,9.4-9.4,9.4c-5.2,0-9.4-4.2-9.4-9.4c0-5.2,4.2-9.4,9.4-9.4
				S1158.7,615.3,1158.7,620.5z"/>
			<path class="st5" d="M170.6,27.3c0,2.9-2.4,5.3-5.3,5.3s-5.3-2.4-5.3-5.3s2.4-5.2,5.3-5.2C168.2,22,170.6,24.4,170.6,27.3z"/>
			<path class="st5" d="M118.3,87c0,3.5-2.8,6.3-6.4,6.3c-3.6,0-6.4-2.8-6.4-6.3c0-3.5,2.8-6.3,6.4-6.3
				C115.5,80.7,118.3,83.6,118.3,87z"/>
			<path class="st5" d="M163.6,2.6c0,2.2-1.8,4.1-4.1,4.1s-4.1-1.8-4.1-4.1c0-2.2,1.9-4.1,4.1-4.1C161.7-1.5,163.6,0.4,163.6,2.6z"
				/>
			<path class="st5" d="M171.5,27.3c0,3.5-2.8,6.2-6.2,6.2c-3.5,0-6.2-2.8-6.2-6.2s2.8-6.2,6.2-6.2
				C168.7,21.1,171.5,23.9,171.5,27.3z"/>
			<path class="st5" d="M368.1,35.9c0,2.3-1.9,4.2-4.3,4.2s-4.3-1.9-4.3-4.2s1.9-4.2,4.3-4.2S368.1,33.6,368.1,35.9z"/>
			<path class="st5" d="M389.5,338c0,4.5-3.7,8.3-8.3,8.3c-4.6,0-8.3-3.7-8.3-8.3c0-4.6,3.7-8.3,8.3-8.3
				C385.8,329.7,389.5,333.4,389.5,338z"/>
			<path class="st5" d="M116.6,87c0,2.6-2.1,4.7-4.7,4.7c-2.6,0-4.7-2.1-4.7-4.7c0-2.6,2.1-4.7,4.7-4.7
				C114.5,82.3,116.6,84.5,116.6,87z"/>
			<path class="st5" d="M367.8,35.9c0,2.1-1.8,3.9-3.9,3.9s-3.9-1.8-3.9-3.9s1.8-3.9,3.9-3.9S367.8,33.8,367.8,35.9z"/>
			<path class="st5" d="M369.6,35.9c0,3.1-2.6,5.7-5.7,5.7c-3.2,0-5.7-2.6-5.7-5.7s2.6-5.7,5.7-5.7S369.6,32.8,369.6,35.9z"/>
			<path class="st5" d="M171.8,27.3c0,3.6-2.9,6.6-6.6,6.6s-6.6-2.9-6.6-6.6s2.9-6.6,6.6-6.6S171.8,23.7,171.8,27.3z"/>
			<path class="st5" d="M118.6,87c0,3.6-2.9,6.6-6.6,6.6c-3.6,0-6.6-2.9-6.6-6.6c0-3.6,2.9-6.6,6.6-6.6
				C115.6,80.5,118.6,83.4,118.6,87z"/>
			<path class="st5" d="M371.3,35.9c0,4.1-3.3,7.4-7.4,7.4s-7.5-3.3-7.5-7.4c0-4.1,3.3-7.4,7.5-7.4
				C367.9,28.6,371.3,31.9,371.3,35.9z"/>
			<path class="st5" d="M570.7,204.1c0,4.3-3.5,7.7-7.7,7.7c-4.3,0-7.7-3.5-7.7-7.7c0-4.3,3.5-7.7,7.7-7.7
				C567.2,196.5,570.7,199.8,570.7,204.1z"/>
			<path class="st5" d="M416.4,355.2c0,3.3-2.7,6-6,6s-6-2.7-6-6c0-3.3,2.7-6,6-6S416.4,351.8,416.4,355.2z"/>
			<path class="st5" d="M388.4,338c0,4-3.2,7.2-7.3,7.2c-4,0-7.3-3.2-7.3-7.2s3.3-7.2,7.3-7.2S388.4,334,388.4,338z"/>
			<ellipse class="st5" cx="562.9" cy="204.1" rx="6.8" ry="6.8"/>
			<path class="st5" d="M569.9,204.1c0,3.8-3.1,6.9-6.9,6.9c-3.8,0-6.9-3.1-6.9-6.9c0-3.8,3.1-6.9,6.9-6.9
				C566.7,197.3,569.9,200.3,569.9,204.1z"/>
			<path class="st5" d="M372.4,35.9c0,4.7-3.8,8.5-8.5,8.5c-4.7,0-8.5-3.8-8.5-8.5c0-4.7,3.8-8.5,8.5-8.5
				C368.5,27.4,372.4,31.2,372.4,35.9z"/>
			<path class="st5" d="M386.7,338c0,3-2.5,5.5-5.5,5.5s-5.5-2.5-5.5-5.5c0-3,2.5-5.5,5.5-5.5C384.3,332.5,386.7,334.9,386.7,338z"
				/>
			<path class="st5" d="M567.4,204.1c0,2.5-2,4.4-4.5,4.4s-4.4-2-4.4-4.4c0-2.5,2-4.4,4.4-4.4C565.4,199.7,567.4,201.7,567.4,204.1z
				"/>
			<path class="st5" d="M677,286.1c0,5-4,9-9,9s-9-4-9-9s4-9,9-9S677,281.2,677,286.1z"/>
			<path class="st5" d="M491,485.6c0,2.2-1.8,4-4,4c-2.2,0-4-1.8-4-4c0-2.2,1.8-3.9,4-3.9C489.2,481.7,491,483.5,491,485.6z"/>
			<path class="st5" d="M414.8,355.2c0,2.5-2,4.5-4.5,4.5c-2.5,0-4.5-2-4.5-4.5s2-4.5,4.5-4.5C412.8,350.7,414.8,352.6,414.8,355.2z
				"/>
			<path class="st5" d="M673.1,286.1c0,2.8-2.3,5.1-5.1,5.1c-2.8,0-5.2-2.3-5.2-5.1c0-2.8,2.3-5.1,5.2-5.1S673.1,283.3,673.1,286.1z
				"/>
			<path class="st5" d="M678.7,286.1c0,5.9-4.8,10.7-10.7,10.7c-5.9,0-10.7-4.8-10.7-10.7s4.8-10.7,10.7-10.7
				C673.9,275.5,678.7,280.2,678.7,286.1z"/>
			<path class="st5" d="M567.4,203.3c0,2-2,3.6-4.4,3.6c-2.5,0-4.4-1.6-4.4-3.6c0-2,2-3.6,4.4-3.6
				C565.4,199.7,567.4,201.3,567.4,203.3z"/>
			<path class="st5" d="M374.8,128.7c0,2.8-2.3,5.1-5.1,5.1s-5.1-2.2-5.1-5.1c0-2.8,2.2-5.1,5.1-5.1
				C372.5,123.8,374.8,126,374.8,128.7z"/>
			<path class="st5" d="M376.6,128.7c0,3.7-3,6.8-6.8,6.8c-3.7,0-6.8-3-6.8-6.8c0-3.7,3-6.8,6.8-6.8
				C373.5,122,376.6,125,376.6,128.7z"/>
			<path class="st5" d="M381.2,128.7c0,6.3-5.2,11.5-11.6,11.5s-11.6-5.2-11.6-11.5s5.2-11.5,11.6-11.5S381.2,122.4,381.2,128.7z"/>
			<path class="st5" d="M377.5,128.7c0,4.3-3.5,7.7-7.7,7.7c-4.3,0-7.7-3.5-7.7-7.7s3.5-7.7,7.7-7.7
				C374,121.1,377.5,124.5,377.5,128.7z"/>
			<ellipse class="st5" cx="369.8" cy="128.7" rx="6.8" ry="6.8"/>
			<path class="st5" d="M376.7,128.7c0,3.8-3.1,6.9-6.9,6.9c-3.8,0-6.9-3.1-6.9-6.9s3.1-6.9,6.9-6.9
				C373.6,121.9,376.7,124.9,376.7,128.7z"/>
			<path class="st5" d="M374.2,128.7c0,2.5-2,4.4-4.5,4.4s-4.4-2-4.4-4.4s2-4.4,4.4-4.4C372.3,124.3,374.2,126.3,374.2,128.7z"/>
			<path class="st5" d="M374.2,128.7c0,2.5-2,4.4-4.4,4.4s-4.4-2-4.4-4.4s2-4.4,4.4-4.4S374.2,126.3,374.2,128.7z"/>
			<ellipse class="st5" cx="410.3" cy="355.2" rx="4.9" ry="4.9"/>
			<path class="st5" d="M674.5,286.1c0,3.6-2.8,6.4-6.4,6.4s-6.4-2.8-6.4-6.4s2.8-6.4,6.4-6.4S674.5,282.6,674.5,286.1z"/>
			<path class="st5" d="M791.1,479.6c0,3-2.5,5.5-5.5,5.5s-5.5-2.5-5.5-5.5s2.5-5.5,5.5-5.5C788.6,474,791.1,476.5,791.1,479.6z"/>
			<path class="st5" d="M495,485.6c0,4.4-3.6,7.9-7.9,7.9c-4.4,0-7.9-3.6-7.9-7.9c0-4.4,3.6-7.9,7.9-7.9
				C491.5,477.7,495,481.2,495,485.6z"/>
			<path class="st5" d="M792.5,479.6c0,3.8-3.1,6.9-6.9,6.9c-3.8,0-6.9-3.1-6.9-6.9c0-3.8,3.1-6.9,6.9-6.9
				C789.4,472.5,792.5,475.6,792.5,479.6z"/>
			<path class="st5" d="M791.6,479.6c0,3.3-2.7,6-6,6c-3.3,0-6-2.7-6-6c0-3.3,2.7-6,6-6C789,473.5,791.6,476.2,791.6,479.6z"/>
			<path class="st5" d="M675.5,286.1c0,4.1-3.4,7.5-7.5,7.5c-4.1,0-7.5-3.4-7.5-7.5s3.4-7.5,7.5-7.5
				C672.2,278.6,675.5,282,675.5,286.1z"/>
			<path class="st5" d="M492.2,485.6c0,2.8-2.3,5.2-5.2,5.2c-2.8,0-5.2-2.3-5.2-5.2c0-2.8,2.3-5.2,5.2-5.2
				C490,480.5,492.2,482.8,492.2,485.6z"/>
			<path class="st5" d="M793.2,479.6c0,4.2-3.4,7.6-7.6,7.6c-4.3,0-7.6-3.4-7.6-7.6c0-4.2,3.5-7.6,7.6-7.6
				C789.8,471.9,793.2,475.3,793.2,479.6z"/>
			<path class="st5" d="M1044.1,608.7c0,2.1-1.8,3.9-3.9,3.9s-3.9-1.8-3.9-3.9c0-2.1,1.8-3.9,3.9-3.9
				C1042.4,604.8,1044.1,606.6,1044.1,608.7z"/>
			<path class="st5" d="M1046.9,608.7c0,3.6-2.9,6.6-6.6,6.6s-6.6-2.9-6.6-6.6c0-3.6,2.9-6.6,6.6-6.6
				C1044,602.1,1046.9,605.1,1046.9,608.7z"/>
			<ellipse class="st5" cx="1040.3" cy="608.7" rx="4.9" ry="4.9"/>
			<path class="st5" d="M793,479.6c0,4.1-3.3,7.4-7.5,7.4c-4.1,0-7.5-3.3-7.5-7.4s3.3-7.5,7.5-7.5C789.7,472.1,793,475.5,793,479.6z
				"/>
			<path class="st5" d="M1046.4,608.7c0,3.4-2.8,6.1-6.1,6.1s-6.1-2.8-6.1-6.1c0-3.4,2.8-6.1,6.1-6.1S1046.4,605.3,1046.4,608.7z"/>
			<path class="st5" d="M1046.3,608.7c0,3.3-2.7,6-6,6c-3.3,0-6-2.7-6-6s2.7-6,6-6C1043.6,602.7,1046.3,605.4,1046.3,608.7z"/>
			<path class="st5" d="M118.4,87c0,3.6-2.9,6.5-6.5,6.5c-3.6,0-6.5-2.8-6.5-6.5c0-3.6,2.8-6.5,6.5-6.5
				C115.5,80.6,118.4,83.5,118.4,87z"/>
			<path class="st5" d="M134.3,295.4c0,6.3-5.2,11.5-11.5,11.5c-6.3,0-11.5-5.2-11.5-11.5c0-6.3,5.2-11.5,11.5-11.5
				C129.2,283.9,134.3,289.1,134.3,295.4z"/>
			<path class="st5" d="M120.6,87c0,4.8-3.9,8.7-8.7,8.7c-4.8,0-8.7-3.9-8.7-8.7c0-4.8,3.9-8.7,8.7-8.7S120.6,82.2,120.6,87z"/>
			<path class="st5" d="M388.2,338c0,3.8-3.1,6.9-7,6.9c-3.8,0-7-3.1-7-6.9c0-3.8,3.1-6.9,7-6.9C385.1,331,388.2,334.1,388.2,338z"
				/>
			<path class="st5" d="M359.6,377.3c0,3.7-3,6.8-6.8,6.8c-3.7,0-6.8-3-6.8-6.8s3.1-6.8,6.8-6.8
				C356.5,370.4,359.6,373.4,359.6,377.3z"/>
			<path class="st5" d="M128.9,295.4c0,3.4-2.8,6-6,6c-3.4,0-6-2.8-6-6c0-3.4,2.8-6,6-6C126.2,289.3,128.9,292,128.9,295.4z"/>
			<path class="st5" d="M394.3,338c0,7.2-5.9,13.1-13.1,13.1c-7.3,0-13.1-5.9-13.1-13.1c0-7.2,5.9-13.1,13.1-13.1
				C388.4,324.9,394.3,330.8,394.3,338z"/>
			<path class="st5" d="M390,338c0,4.8-3.9,8.7-8.7,8.7c-4.8,0-8.7-3.9-8.7-8.7c0-4.8,3.9-8.7,8.7-8.7C386,329.3,390,333.2,390,338z
				"/>
			<path class="st5" d="M118.4,87c0,3.6-2.9,6.5-6.5,6.5c-3.6,0-6.5-2.9-6.5-6.5c0-3.6,2.8-6.5,6.5-6.5
				C115.5,80.6,118.4,83.5,118.4,87z"/>
			<path class="st5" d="M128.5,295.4c0,3.1-2.5,5.6-5.6,5.6c-3.1,0-5.6-2.5-5.6-5.6c0-3.1,2.5-5.6,5.6-5.6
				C125.9,289.8,128.5,292.3,128.5,295.4z"/>
			<path class="st5" d="M386,338c0,2.7-2.1,4.8-4.8,4.8c-2.7,0-4.8-2.1-4.8-4.8s2.1-4.8,4.8-4.8C383.8,333.2,386,335.3,386,338z"/>
			<path class="st5" d="M415.7,355.2c0,3-2.4,5.4-5.4,5.4c-3,0-5.4-2.4-5.4-5.4c0-3,2.4-5.4,5.4-5.4
				C413.3,349.8,415.7,352.2,415.7,355.2z"/>
			<path class="st5" d="M442.8,385.4c0,4.1-3.3,7.4-7.4,7.4s-7.4-3.3-7.4-7.4s3.3-7.4,7.4-7.4S442.8,381.3,442.8,385.4z"/>
			<path class="st5" d="M362.1,377.3c0,5.2-4.3,9.4-9.4,9.4c-5.2,0-9.4-4.2-9.4-9.4c0-5.2,4.2-9.4,9.4-9.4
				C358,367.8,362.1,372,362.1,377.3z"/>
			<path class="st5" d="M416.5,355.2c0,3.4-2.8,6.2-6.2,6.2c-3.5,0-6.2-2.8-6.2-6.2c0-3.5,2.8-6.2,6.2-6.2
				C413.7,349,416.5,351.7,416.5,355.2z"/>
			<path class="st5" d="M418.9,355.2c0,4.7-3.8,8.5-8.6,8.5c-4.7,0-8.6-3.8-8.6-8.5s3.8-8.5,8.6-8.5
				C415,346.6,418.9,350.4,418.9,355.2z"/>
			<path class="st5" d="M384.9,338c0,2-1.7,3.7-3.7,3.7c-2,0-3.7-1.7-3.7-3.7s1.7-3.7,3.7-3.7C383.3,334.2,384.9,335.9,384.9,338z"
				/>
			<path class="st5" d="M362.3,377.3c0,5.3-4.3,9.6-9.6,9.6c-5.3,0-9.6-4.3-9.6-9.6c0-5.3,4.3-9.6,9.6-9.6
				C358,367.7,362.3,371.9,362.3,377.3z"/>
			<path class="st5" d="M418,355.2c0,4.3-3.5,7.7-7.7,7.7s-7.7-3.5-7.7-7.7c0-4.3,3.5-7.7,7.7-7.7S418,350.9,418,355.2z"/>
			<path class="st5" d="M493.2,485.6c0,3.3-2.7,6-6,6c-3.3,0-6-2.7-6-6c0-3.3,2.7-6,6-6C490.4,479.6,493.2,482.3,493.2,485.6z"/>
			<path class="st5" d="M442.5,385.4c0,3.9-3.2,7.1-7.1,7.1s-7.1-3.2-7.1-7.1s3.2-7.1,7.1-7.1C439.4,378.3,442.5,381.4,442.5,385.4z
				"/>
			<path class="st5" d="M492.4,485.6c0,2.8-2.3,5.2-5.2,5.2c-2.9,0-5.2-2.3-5.2-5.2c0-2.8,2.3-5.2,5.2-5.2
				C490,480.4,492.4,482.8,492.4,485.6z"/>
			<path class="st5" d="M490.7,485.6c0,2-1.6,3.6-3.6,3.6c-2,0-3.6-1.6-3.6-3.6c0-2,1.6-3.6,3.6-3.6
				C489.1,482,490.7,483.6,490.7,485.6z"/>
			<path class="st5" d="M416.1,355.2c0,3.2-2.6,5.8-5.9,5.8s-5.9-2.6-5.9-5.8c0-3.2,2.6-5.8,5.9-5.8S416.1,351.9,416.1,355.2z"/>
			<path class="st5" d="M444.3,385.4c0,4.9-3.9,8.8-8.8,8.8c-4.9,0-8.8-3.9-8.8-8.8s3.9-8.8,8.8-8.8
				C440.3,376.5,444.3,380.5,444.3,385.4z"/>
			<path class="st5" d="M494.2,485.6c0,3.9-3.2,7.1-7.1,7.1s-7.1-3.2-7.1-7.1c0-3.9,3.2-7.1,7.1-7.1
				C491,478.5,494.2,481.7,494.2,485.6z"/>
			<path class="st5" d="M491.6,485.6c0,2.5-2,4.4-4.4,4.4c-2.5,0-4.4-2-4.4-4.4c0-2.5,2-4.4,4.4-4.4
				C489.6,481.2,491.6,483.2,491.6,485.6z"/>
			<path class="st5" d="M356.8,377.3c0,2.2-1.8,4-4.1,4c-2.2,0-4.1-1.8-4.1-4s1.8-4.1,4.1-4.1C354.9,373.2,356.8,374.9,356.8,377.3z
				"/>
			<path class="st5" d="M177.5,586.9c0,2.2-1.8,4.1-4.1,4.1c-2.2,0-4.1-1.8-4.1-4.1c0-2.2,1.8-4.1,4.1-4.1
				C175.7,582.9,177.5,584.7,177.5,586.9z"/>
			<path class="st5" d="M102.3,552.5c0,3.6-2.9,6.5-6.5,6.5s-6.5-2.9-6.5-6.5c0-3.6,2.9-6.5,6.5-6.5C99.5,546,102.3,549,102.3,552.5
				z"/>
			<path class="st5" d="M358.3,377.2c0,3.1-2.5,5.6-5.6,5.6s-5.6-2.5-5.6-5.6s2.5-5.6,5.6-5.6S358.3,374.1,358.3,377.2z"/>
			<path class="st5" d="M360.4,377.3c0,4.3-3.5,7.7-7.7,7.7s-7.7-3.5-7.7-7.7c0-4.3,3.5-7.7,7.7-7.7
				C357,369.5,360.4,373,360.4,377.3z"/>
			<path class="st5" d="M127.1,295.4c0,2.3-2,4.3-4.3,4.3c-2.4,0-4.3-2-4.3-4.3c0-2.4,2-4.3,4.3-4.3
				C125.2,291.1,127.1,293.1,127.1,295.4z"/>
			<path class="st5" d="M103,552.5c0,3.9-3.2,7.1-7.2,7.1c-3.9,0-7.1-3.2-7.1-7.1c0-3.9,3.2-7.1,7.1-7.1
				C99.8,545.4,103,548.6,103,552.5z"/>
			<path class="st5" d="M357.7,377.2c0,2.8-2.2,5-5,5s-5-2.2-5-5s2.2-5,5-5S357.7,374.4,357.7,377.2z"/>
			<ellipse class="st5" cx="435.4" cy="385.4" rx="5.7" ry="5.7"/>
			<path class="st5" d="M180.6,586.9c0,4-3.2,7.2-7.2,7.2c-4,0-7.2-3.2-7.2-7.2c0-4,3.2-7.2,7.2-7.2
				C177.4,579.7,180.6,582.9,180.6,586.9z"/>
			<path class="st5" d="M439.7,385.4c0,2.4-2,4.3-4.3,4.3c-2.4,0-4.3-2-4.3-4.3c0-2.4,2-4.3,4.3-4.3
				C437.8,381.1,439.7,383,439.7,385.4z"/>
			<path class="st5" d="M441.9,385.4c0,3.6-2.8,6.4-6.4,6.4c-3.6,0-6.4-2.8-6.4-6.4c0-3.6,2.8-6.4,6.4-6.4
				C438.9,378.9,441.9,381.9,441.9,385.4z"/>
			<path class="st5" d="M358.3,377.3c0,3-2.5,5.5-5.6,5.5c-3,0-5.6-2.5-5.6-5.5c0-3,2.5-5.5,5.6-5.5
				C355.8,371.7,358.3,374.1,358.3,377.3z"/>
			<path class="st5" d="M182.4,586.9c0,4.9-4,8.9-8.9,8.9c-5,0-9-4-9-8.9s4-8.9,9-8.9C178.4,578,182.4,582,182.4,586.9z"/>
			<ellipse class="st5" cx="435.4" cy="385.4" rx="4.6" ry="4.6"/>
			<path class="st5" d="M440.8,385.4c0,2.9-2.4,5.3-5.4,5.3c-2.9,0-5.4-2.4-5.4-5.3c0-2.9,2.4-5.4,5.4-5.4S440.8,382.4,440.8,385.4z
				"/>
		</g>
	</g>
</g>
<path id="IR" class="st6" d="M714.1,198.7l6.4,1.5l3.4,1.6l5.2,0.3l2.4-0.3l1.8-1.5l0.3-2.4l-0.3-2.4l-2.5-10.9l-1.4-7.7l10.5,0.5
	l4.1-1l6-2.6l4.6-1.6l2.3-0.2l2.3-1.2l1.7-1.5l3.9-10.5l2-2.7l6.7-6l5.7-3.8l5.9-3.4l7.5-2.3l10,0.2l7.9,0.8h4.6l2.2,0.2l1.6-0.3
	l0.9-0.7l1-4.6l1.6-1.5l2.8-1.3h3.9l4.8-0.3l4,0.3l5,1.8l6.5,0.1l4.4-0.3l2.5,1.8l1.8,2.4l0.9,2l0.2,2.7v2.1l0.7,0.8l2.7,1.2
	l3.7,0.9l7.2,1.1l6.7,2.1l3.5,1.4l4.9,2.3l5.8,5.6l2.2,0.9l2.6,0.6l1.9-0.1l4.4-2.4l3.8,1.7l1.9-0.2l4.4-1.3l4.6,1.6l11.5,6.1
	l1.3-0.1l1,0.6l1,1.4l0.7,1.7l0.9,5.3l3.3,3.9l4.1,3.5l4.7,1.9l9.9,4.6l4.3,3.7l4.4,6.3l5.4,8.3l0.8,0.8l13.9-0.3h15.6l1.9,3.3
	l-0.4,6.6l0.6,6.7l1.4,4.6v4.3l-1.1,2.2l-0.9,2.5l-0.3,1.1l2,1.5l1.8,3.5l0.3,4.9l-0.9,2.6l0.1,2.2l0.9,1.8l0.8,3.1l-0.1,1.9
	l-1.3,1.8l-0.8,2.3l-1,2.9l-0.4,2.3l-1.9,1.1l-1.5,0.8l0.3,2.9l0.8,2.4l0.9,2.9l-1,2l-0.6,2.3l-1.4,3.7l0.4,3l-1.5,2.6l-1.9,2.3
	l-1.3,1.8l-0.3,2.6l-1.4,0.9l-2.6,2.1l-1.6,1.5l-2.4,0.5l-0.5,1.2l0.4,1.2l1,0.8l1.6,2.6l3.2,4.5l-9.4,0.6l-2.7,4L979,328l1.6,11.5
	l-1.6,5.9l0.9,3.3l2.4,2.3l3.1,1.3l5.8,0.1l3.8,0.9l0.4,1.5l-2.2,2.2l-3.5,4.2l-1.9,1.8l-6,8.4l0.1,3.6l0.6,2.9l2.6,9l2.5,8.7
	l4.5,15.7l-0.1,3.6l-1.4,8.1l-0.1,4.9l0.6,6.3l-0.5,3.3l1.1,7.3l1.3,0.5l9.8,1.4l8.9,1.3l11.9,1.7l3.6,4.3l2.2,9.4l-0.1,7l-1,3.6
	l-8.5,10.2l-8.7,10.3l-8.6,10.3l-9,10.6l-0.9,1.1l7.2,8.5l4.5,5.2l6.3,7.4l0.8,1.8l-0.1,2.9l6.5,11.2l2.3,5.8l2.1,3.4l5.1,5.3l5,5.2
	l5.4,2.4l3.7,0.5l8.4,2.7l3.1,2.2l4.9,5.5l5.8-0.8h1.2l0.3,0.4l0.2,1.8l-0.9,8.6l1.6,8.6l1.1,12.9l-0.4,2.2l-1.4,3.7l-0.1,2.4
	l-0.4,1.5l0.4,0.6l1.9,0.9l3.9,0.5l9.5-1.4l1.1,0.4l2.3,1.5l1.7,2.4l0.1,1.1l-2.4,2l-0.4,3.4l0.7,5l-0.3,0.6l-2.1,1.1l-0.7,7.3
	l-0.4,0.7l-2.5,0.7l-11.6-0.5l-1.3,0.2l-4.4,1.9l-7.5,1.4l-2.1,0.8l-2.8,2.2l-2,2.7l-0.4,2.5l-0.4,0.5l-4.3-0.5l-1.4,2.1l-8.3,3.2
	l-1,0.7l-1.2,2.5l-1.1,7.1l-1,6.4l-0.6,0.9l-2.6,2.2l-0.3,0.7l0.4,2.5l-1.2,4.5l-0.9,12.5l-1,3.5l-2.1,0.3l-1.6,1.7l-3,2.2l-6.4-1.7
	l-5.1-1.7l-16.9-4.1l-1.9-2l-1.1-3.5l-2.9-1l-4.2,5.2l-14.3-3l-4.8,0.9l-3-1.6l-7.7-0.1l-6.1-3.3l-8.7,2.2l-6.9,0.4l-9.4-5.7
	l-10.1-1.6l-8.2,0.5l-4.2-0.4l-6.9-2.1l-3.2-2.1l-5.3,1.6l-2.4-3l-15.1-2.8l-2.8-5.3l-2.1-5l-0.2-5.1l-3.7-9l-1.2-13l-1.4-5.1
	l-2-4.4l-2.7-3.8l-3.7-4l-3.2-1.6l-14.1-3.1l-2.7,0.4l-6.3,2l-6.7,4.5l-11,2.5l-2.2,1.9l-2.8,4.3l-3.6,2.5l-4.9-0.6l-5.3,2.6
	l-9.8,7.1l-5.2,2.2l-4.3-0.2l-4.7-3.4l-10.4-4.5l-6.7-1.5l-9.4,1l-4.4-0.8l-7.5-5.3l-2-3.9l-4.3-2.6l-13.6-5.8l-11-7.7l-2-2.9
	l-1.4-4.3l-4.8-5.2l-10.8-4.3l-6.1-4.6l-7.2-1l-6.7,0.1l-2.9-0.8l-2.7-2l-9.1-9.5l-0.1-3.7l-5.6-9.3l-1.3-3.3l-1.2-9.2l-1.6-2.4
	l-5.9-3.8l-0.9-2.5l1.2-3.3v-2.5l-3-2.4l-4.6-1.3l-1.1-2.8l0.8-5.5l-0.7-3.5l-4-5.6l-6-5.7l-5.9-8.4l-2.3-2.1l-1.5-5.5l-2.2-6.6
	l-3.4-0.5l-16.3,7.9l-4.7-4.4l-14.3-7.7l-1-1.2l-1-1.8l1.8-1l1.8-0.4l3.6,1.4l2.2-1.6l-0.9-2.6l-3.6-1.6l-4.9,0.1l1.3,2.5l-4.6,2.3
	l-1,3l0.7,3.8l0.4,5.3l-1.9,2.5l-1.4,1.2l-6.1,0.3l-2.9,2.3l-1.9,0.6l-2.6-1.8l-1.7-1.5l-1.4-3.1l-0.4-2.2l0.5-1.2l-0.7-1.8l-2-2.4
	l-2-1.3l-2-0.2l-1.7-1.5l-1.3-2.7l-3.1-1.8l-1.9-0.4l-0.1-8.4l-0.1-7.3l-0.1-7.3l-6.6-0.3l-6-0.3v-6.1v-11.5l2.8-8.9l2.9-8.6
	l-4.4-6.3l-4.7-6.7l-3-2.8l-3.6-8.5l-1.8-3.7l-1.6-1.4l-1.7-0.8l-6.2,0.3l-5.8-4.6l-6.8-5.4l-8.3-6.6l-7.3-4.3l-3-0.9l-7-0.3
	l-0.7-0.8l-0.5-2.4v-2.6l2.3-4l0.2-2.5l-4.8-8.4l-1.5-2.5l-4.1-1l0.8-2.4v-1.6l-0.6-1.3L423,349l-1.2-0.1l-3.2,1l-2.4-3.8l-7.6-10.9
	l-2.4-1.3l-0.4-0.7l1.9-3.3l3.1-4.9l0.5-2.9l-0.6-3.2l-3.4-6l0.8-2.5l1.4-2.9l0.1-2.2l2.3,0.3h2.9l0.9-1.8l-0.1-6.2l0.7-2.3
	l9.2-10.6l4.6-2.4l3.5-2.2l0.8-3.2l-0.7-1.6l-0.7-2.4l-0.2-1.7l-3.8-4.8l-1.3-2.4l-0.2-2.2l0.9-3.9l1.6-3l5.4-1.8l3.1-1.5l0.4-1.4
	l-4-2.2l-8.6-0.7l-6.3,0.6L398.6,222l0,0l0,0l0,0l0,0l0,0l0,0l0,0l0,0l0,0l0,0l0,0l0,0l0,0l0,0l0,0l0,0l0,0l0,0l0,0l0,0l-16.3-35.2
	v-0.4l0.1-0.7l-0.3-2.9l1.4-2.5l-0.1-1l-3-3.2l-4.2-3.2l-1.1-0.6v-3.4l0.1-2.6l-0.4-2.3l-0.8-1.3v-1l1.7-2.5l-1.1-1.6l-6.2-4l-2.3-2
	l-4.3-0.4l-0.4-1.3l0.7-2.8l1.5-3.4l2.3-3.4l0.7-1.8l0.9-3l0.3-2.2l2.6-3v-0.8l-0.7-1.1l-2.1-0.6l-2.1-0.3l-0.8-0.6l-0.3-1.6
	l0.3-6.7l-0.7-4l-0.9-2.9l0.6-6.6l-1.5-1.3l-2.3-3.4l-1-2.9l0.5-1.1l0.5-1.9l0.3-2.5l-0.1-1.8l-2.2-1.7l-1.6-1.8l-0.2-2l-0.6-2.5
	l-0.9-2l-0.4-1.3L355,78l3-0.6l4.4,0.4h3.6l2-1.3l2.5-12l2.3-3.2l2.7-1.8l5.2,4.3l2.2,1.5l1.2,0.1l0,0l0.8,1.1l6.2,10.1l2.7,3
	l1.6,2.5l1.1,2.8l1.9,1.9l2.5,1l3,2.7l2,2.1l3.4,4.4l3.6,1.6l13.2,3.2l7.3,1.5l2.1,0.4l5.6-2.1l6.6,0.3l2.4,0.1l8.7-8.9l2.6-3
	l5.2-1.5l2.9-3.6l4.7-4.3l5.7-4.1l5.2-3.7l4-2.2l7.2-5.2l4.5-1.8l3.9,0.1l5.9,6.1l5,5.5l1.5,2.4l-2.5,2.2l-4.6,2.1l-0.9,1.5l-0.3,2
	l0.2,1.9l0.6,1.5l5.6,3.5l0.6,1.9v2l-0.6,1.2l-1.3,0.7l-3.9,1l-3.4,1.1l-1.2,1.1l-1,1.3l0.1,1.5l1,1.7l6.9,4.6l0.8,1.7l1.4,2.3
	l1.7,1.4l2.9,0.4l1.4,0.9l6.7,8.5l1.6,0.6l7.8-1.9l1.1,0.1l0.1,2.1l1.2,12l0.9,6.2l1.3,6l2.1,5.5l2.5,5.2l3.4,3.2l7.6,3.8l3.7,1.1
	l9.8,0.8l9.6,1.7l5.7,1.8l1.7,1.3l1.4,1.9l4.7,9l7.4,6.4l15,9.6l7.2,3.2l24.4,6l16.3-0.3L714.1,198.7"/>
</svg>
