<svg id="Layer_1" data-name="Layer 1"
     xmlns="http://www.w3.org/2000/svg"
     viewBox="0 0 1190 595.28">
    <defs>
        <style>.cls-1{fill:#293470;}.cls-2{fill:#f7941d;}</style>
    </defs>
    <title>tam_shirin_logo-02</title>
    <path class="cls-1"
          d="M891.41,426.15c10.16-2,19.48-3.38,28.54-5.73,23.74-6.15,44.35-18.53,64-32.83,23.81-17.33,47.37-35,71.76-51.54,17.79-12,37.21-21.35,58.39-26.27,10.66-2.48,21.4-3.34,32,.46,12.39,4.46,18.39,12.83,18.79,26,.47,15.24-4.66,29.15-10.71,42.7-14.55,32.61-34.31,61.94-57.05,89.36-20.62,24.86-43.22,47.61-70,65.9-19.55,13.36-40.43,24.13-64.14,27.39-28.86,4-56,0-77.44-22.19-12.66-13.06-18.58-29.42-20.72-47.12-1.22-10.05-1.33-20.22-2-31-1.25-.42-3.21-1.17-5.22-1.75-27-7.78-39.9-28.51-41.82-54.15-1.28-17.15,1.53-33.82,6.86-50.11.67-2,1.26-4.1,2.19-7.12-3.79,1.53-6.92,2.71-10,4.06C789.2,363.47,767.8,379.69,754.37,405c-7.79,14.66-10.52,30.73-12.68,46.92a3.9,3.9,0,0,1,0,.5c-1,3.46-.49,9.18-5.41,8.59-4.21-.51-3.55-5.89-3.17-9.36,5.71-52.28,26.73-97.07,65.67-132.92A121.59,121.59,0,0,1,836.07,295a11.51,11.51,0,0,0,6.68-6.69C848,276.65,853.21,265,859,253.57c5.63-11,6.6-11.28,18.77-9.41,11.84,1.82,22.17,6.77,30.39,15.73,4.88,5.33,6.67,11.62,5.12,18.5C906.91,306.84,892,327.9,862.46,336c-9,2.47-17.83,5.32-26.67,8.24-1.64.54-3.75,2-4.22,3.43-4.93,15.44-7.23,31.15-2.81,47.12,4.87,17.54,22.22,30.3,39.72,30,5.28-15,10.07-30.06,15.8-44.72,13.61-34.78,35.09-64.45,60.55-91.46,4.91-5.21,9.6-10.64,14.36-16,4.45-5,5.35-8.11-2.24-13.31-7-4.8-15.22-6.58-23.73-6.38-3.48.08-6.94.71-10.41,1-2.65.21-5.25-.14-3.5-3.72,9.6-19.62,32.88-40.11,56.77-38.85,9,.47,17.84,2.16,25.74,6.94,11.19,6.76,14.49,19.4,6.89,30-4.17,5.84-10.12,10.42-15.33,15.51-1.61,1.57-3.42,2.93-6.28,5.36,3.38,1.27,5.6,2.87,7.73,2.76,7.1-.38,14.67,0,21.14-2.37,37.36-13.81,70.72-34.57,101-60.37a57.62,57.62,0,0,0,5.34-5.26c4.53-5,4.23-7.13-1.39-11.11-10.61-7.5-31.34-6.75-41.79,1.54-13,10.3-22.46,23.59-31.79,37-3.51,5.05-6.62,10.38-10,15.52a11.26,11.26,0,0,1-3.33,3.56,4.23,4.23,0,0,1-3.61-.07c-.57-.33-.7-2.16-.41-3.14a22.48,22.48,0,0,1,2.17-4.47q13.78-24.88,27.59-49.76c6.53-11.74,9.27-24.49,10-37.75.88-16,.85-32,2.69-47.89,2.48-21.3,11-41,18.8-60.79A121.35,121.35,0,0,1,1098.9,31c1-1.7,3.41-2.57,5.17-3.83.34,2,1.23,4.12.92,6-2.82,17.23-6.17,34.37-8.71,51.63-2.16,14.64-2.67,29.55-5.38,44.06-2.39,12.83-6.81,25.29-10.35,37.91a8.28,8.28,0,0,0-.24,4.89,54.54,54.54,0,0,0,4.25-4.07,108,108,0,0,1,28.77-24.48c17.55-10.08,33.13-2.52,36.32,17.47,1.88,11.8-1.64,22.43-6.46,32.77-14.54,31.21-36.1,56.06-66.38,73-21.41,12-43.59,22.14-67.55,27.82a52.74,52.74,0,0,1-36-3.92c-2.68-1.3-4.52-1.09-6.7.73-38.07,31.69-64.35,70.61-73.6,120C892.11,415.46,892,420.11,891.41,426.15Zm7.07,33.61c10.62,20.9,26.69,34.47,49.21,39.37,23.19,5,46.14,1.92,68.35-5.36,34.14-11.19,63.29-30.67,88.69-55.89,11.5-11.42,22.16-23.54,29.09-38.4,6.13-13.16,8.59-26.71-1.11-39.12-11.84-15.16-28-21.35-47.11-19.77-14.7,1.22-28,6.76-40.69,14-25,14.26-46.88,32.74-69,50.88C951.59,425.34,928.46,446.9,898.48,459.76Z"/>
    <path class="cls-1"
          d="M75.31,266.86c-2.58,15.06-5.1,29.62-7.56,44.19C63.87,334,59.56,356.9,56.3,379.94c-3.37,23.8-5.07,47.78,1.29,71.43C62.36,469.14,73.18,481.94,91.2,487c18.66,5.27,35.06.25,49.19-13,5.7-5.33,11.71-10.35,17.82-15.21,8.3-6.58,17.68-6.94,27.44-4,1.27.38,2.53.82,3.77,1.31,14.29,5.6,25.33-.15,28.93-15.13,1-4.32.35-8.33-3-11.51-3.06-2.93-6.08-3.88-10.14-1a21.09,21.09,0,0,1-29.74-4.71c-2-2.67-3.41-6.94-2.85-10.07,3.52-19.46,11.22-37.22,24.1-52.39,6.31-7.43,14.36-8.21,24-3,10.34,5.64,15.62,15.21,18.93,26,8,25.83,3,49.95-10.28,72.83-7.19,12.4-16.83,22.62-27.9,31.69-8.31,6.81-17.17,8.78-27.48,5.88A102,102,0,0,0,158.81,492c-6.81-.85-11.53,2.31-15.54,7.83-8.51,11.7-17.15,23.36-26.45,34.44-7.38,8.78-16.75,15.3-28.28,17.76-21.16,4.5-40.41-6-50.17-27.09-6-13.08-8-27.06-8.58-41.25-1.15-26.57,1.65-52.94,5.35-79.16,4.3-30.45,8.9-60.9,14.8-91.07,2.65-13.54,8.76-26.41,13.34-39.57,1.08-3.1,2.33-6.15,3.37-8.87-8.05-4.25-16.2-7.72-23.44-12.54C27,241.72,21.37,225.7,27.58,207.18c11.64-34.72,32.16-63.05,63.32-82.84,16.13-10.26,32.93-19.47,49.4-29.19S172,74.54,182.9,58.77C187.59,52,190.84,44.25,194.75,37L197.42,32l1.72.19c.2,2.27.73,4.57.53,6.8-2.91,32.91-16.21,60-45.36,77.27-17.16,10.19-35.06,19.1-52.36,29.05a259.64,259.64,0,0,0-28.39,18.49C64,171.15,64,179.35,72.55,188c7.17,7.25,16.61,10.35,26,13.09a316.74,316.74,0,0,0,70.73,11.85c33.58,1.89,67.24,3.1,100.86,3.07,29,0,57.93-2.22,86.89-3.44,1.82-.08,3.64,0,5.87,0-.58,1.31-1.07,2.47-1.6,3.62-8.19,17.44-16.49,34.84-24.49,52.38-1.33,2.92-2.56,4.47-6,4.62-13.14.59-26.28,1.41-39.4,2.39-2.79.2-4-.53-5.32-3-6.26-12.26-15.26-21.77-28.47-26.62-12.18-4.48-18.59-2.63-25.72,8-4.52,6.76-8.18,14.1-12.53,21-.93,1.48-3.21,3.06-4.82,3-28.63-1-57.29-1.66-85.86-3.68-16.86-1.19-33.57-4.63-50.34-7.05C77.56,267.05,76.75,267,75.31,266.86Z"/>
    <path class="cls-1"
          d="M408.17,543.42c11.34-1.23,20.48-5.08,29.32-9.54C459,523,477,507.4,494.3,491c27.29-25.91,48-56.95,67.41-88.92,12.13-20,25.23-39.21,43.18-54.6C623,332,642.54,319.05,666,312.87c12.27-3.23,24.39-1.91,36.64-.33a56.23,56.23,0,0,0,12.43.38,12.63,12.63,0,0,0,7-3.12c4.8-4.59,9.18-9.63,13.66-14.55,2.16-2.38,3.93-4.84,6.9-.57.6.86,4.38.85,5.38-.11,4.6-4.48,8.79-9.39,13-14.27a29.86,29.86,0,0,0,2.76-4.73c3.68-6.39,4.84-6.47,9.17-.19,5.86-3.48,10.34-8.12,12.77-14.58,1.7-4.5,3-9.16,4.89-13.59,1-2.37,2.78-4.42,4.21-6.61l1.68.51c.22,1.49.79,3,.62,4.48-1.51,13.14-4.58,25.83-10.82,37.63-3.64,6.87-8.07,12.92-14.86,17.12a23.11,23.11,0,0,0-6,5.89c-5.4,7.24-12,13-20.27,16.58-13.6,5.88-24.63,14.83-34.32,25.95-6.32,7.25-13.67,13.62-20.66,20.28a16,16,0,0,1-12.72,4.55c-9.14-.59-18.35-.25-27.47-1.06-14.89-1.33-27.68,3.64-40,11.4-18.11,11.46-31.62,27.41-44.27,44.25-15.5,20.64-30.15,41.93-48.41,60.37-22,22.2-46.07,41.32-75.28,53.24A115.56,115.56,0,0,1,403.2,550,24.68,24.68,0,0,0,393,552.83c-24.74,13.26-50.81,18.48-78.61,13.39-30.12-5.51-52.06-27.3-58.66-57.56-6.24-28.64-2.32-56.55,5.2-84.32,6.65-24.53,17-47.52,28.53-70.07a18.9,18.9,0,0,1,3.7-5.27c1-.94,2.83-1,4.29-1.46.26,1.37,1,2.87.69,4.09a53.19,53.19,0,0,1-2.95,7.92A344.26,344.26,0,0,0,275,420c-9.54,41.15,10.19,72.53,51.57,82.13,2.21.51,4.48.8,5.72,1-3.6-14-7.75-27.8-10.64-41.88-4.06-19.71-3.82-39.79-2.62-59.75,1.84-30.62,6.28-60.92,14.73-90.45,14.46-50.56,36-97.67,70.24-138.15,16.32-19.29,35.34-35.29,59.55-44.08a88.25,88.25,0,0,1,40.24-5.24c18.78,2.08,32,13.12,42.41,27.95,14.95,21.35,22.08,45.62,25.41,71.16,3.11,23.9.6,47.3-8.27,69.64-3.11,7.85-8.55,15-13.77,21.75-4.85,6.32-12.14,9.48-20.06,9.76-4.92.16-6.92,2.5-7.85,6.6-2.39,10.53-4.65,21.09-7,31.62-12.07,53.86-33.26,103.54-69.18,146-10,11.86-22.45,21.71-33.79,32.46C410.89,541.25,410,541.9,408.17,543.42ZM328.21,420c.74,9.55,1.19,21.05,2.59,32.43a155.91,155.91,0,0,0,13.83,48.19c1.66,3.5,3.7,5,7.62,4.57,8.75-1,17.69-.94,26.26-2.71,42-8.68,72.82-33.24,94.24-69.56C495,395.25,505,354.5,499.89,310.54c-.84-7.29,1.18-14.18,4.91-20.51,2.4-4.07,5.87-6.19,10.74-5.86,6.14.42,12.28.84,18.43,1,11.73.33,20.21-5.07,25.09-15.55,9-19.4,10.3-39.54,3.53-59.76-8.64-25.82-25.73-43.63-53-49-29.85-5.93-57.89.14-83.35,17-26.64,17.6-44.67,42.55-58.69,70.6C340.92,301.78,330.55,359,328.21,420Z"/>
    <path class="cls-1"
          d="M584.59,244.71c-1.91-15.47-3.8-30.77-5.74-46.54a9.36,9.36,0,0,1,2.39-.73c25.51-2.46,51-4.78,76.53-7.32,28-2.77,56-5.8,83.93-8.59,25.67-2.55,51.36-4.85,77-7.41q41-4.1,81.92-8.48c31.47-3.32,63-6.64,94.67-5.44a84.33,84.33,0,0,1,32.74,7.92c2.28,1.07,3.86,3.62,5.77,5.49-2,1.58-3.73,4-6,4.61-12.88,3.22-25.77,6.5-38.83,8.82-41.89,7.46-83.8,14.89-125.82,21.59-36,5.73-72,10.72-108.13,15.51-34.62,4.6-69.34,8.54-104,12.72C628.79,239.54,606.5,242.12,584.59,244.71Z"/>
    <path class="cls-1"
          d="M331.17,127.05c-2,.47-3.9,1.07-5.89,1.38-5.52.85-11.24,2.85-16.55,2.09-13.4-1.9-21.84-15.42-18.71-29.26,3.85-17,10.26-33,20.32-47.37,7.14-10.2,16.38-11.87,26.7-4.71,13.06,9,19.18,22.3,19.44,37.58.63,35.89-13.45,65.84-40.13,89.43C305,186.26,290,190.1,275.52,194a140.33,140.33,0,0,1-17.59,3.5c-2,.26-4.13-1.18-6.2-1.85.92-1.95,1.48-4.25,2.88-5.76s3.8-2.64,5.8-3.81c23.22-13.52,45.81-27.91,64.44-47.62,2.83-3,5.07-6.53,7.59-9.81Z"/>
    <path class="cls-2"
          d="M760.59,525.44c-4.67,6.65-8.78,12.7-13.1,18.59a83.15,83.15,0,0,1-6.81,8c-8,8.46-10.72,8.39-19.56,1.07-5.62-4.66-11.72-8.76-17.71-13-5.4-3.79-6.19-5.32-2.87-11.07q11.72-20.29,24.12-40.19c3.75-6,5.79-6.78,11.82-2.82,8.13,5.35,15.5,11.87,23.14,18a30.49,30.49,0,0,1,3.26,3.7c2.46-3.68,4.61-7,6.84-10.24,4.5-6.59,8.92-13.24,13.6-19.71,4.16-5.76,6.23-6.34,12.64-3.05a53.88,53.88,0,0,1,21.64,19.47c3.9,6.26,4.15,12.85,1.37,19.58A83.4,83.4,0,0,1,796.39,545c-3.93,3.45-7.65,3.46-11.54.16-5.32-4.52-10.59-9.12-16-13.57C766.34,529.48,763.59,527.65,760.59,525.44Z"/>
    <path class="cls-2"
          d="M611.17,513.91c6.8-9.88,13.38-19.67,20.2-29.28,4.63-6.52,6.86-7.19,13.67-3.19a69.67,69.67,0,0,1,14.31,10.7c12,12.11,13.2,21.12,4.21,35.66A149.43,149.43,0,0,1,646.09,550c-5.36,5.82-8.09,5.46-14.53.22-6.7-5.45-13.27-11.07-19.93-16.59A20.15,20.15,0,0,0,609,532c-4.89,6.87-9.5,13.75-14.55,20.3a89.82,89.82,0,0,1-9.64,10.07c-3.33,3.14-7,3.36-10.8.52q-12-9-24-17.86c-3.06-2.25-3.77-4.92-1.81-8.18q13.08-21.76,26.21-43.51c2-3.26,4.58-3.79,8.06-2.26,10.11,4.42,18.36,11.25,25.73,19.29C609.17,511.51,610.1,512.66,611.17,513.91Z"/>
    <path class="cls-1"
          d="M148.6,199.62l-5.75-2.78c1.15-2.25,1.73-5.24,3.53-6.61A182.64,182.64,0,0,1,164.6,178c40.72-23.71,66.71-59.29,83.12-102.65q4.5-11.89,9-23.78c.47-1.24.74-2.71,1.59-3.62a31.23,31.23,0,0,1,4.48-3.37c.59,1.88,2.05,4,1.63,5.61C254,90.32,242.89,130.12,219.88,165.42c-11.62,17.84-28.09,27.32-48.62,30.67C164,197.26,156.81,198.34,148.6,199.62Z"/>
    <path class="cls-2"
          d="M812.41,115.89c.68-3.07,1.11-6.23,2.08-9.21A140.46,140.46,0,0,1,833.65,69c2.7-3.82,5.76-5.38,10.62-4,14.28,4.11,24.07,13.25,29.77,26.61,1.43,3.36,1.35,7.92.5,11.6a70.29,70.29,0,0,1-19.76,34.64c-4.41,4.35-7.12,4.48-12.49,1.32-8.31-4.9-16.55-9.91-24.88-14.76C814.06,122.52,812.11,120,812.41,115.89Z"/>
    <path class="cls-2"
          d="M732.89,123.63c3.13-8.58,5.33-16.45,8.82-23.7,4-8.35,9.09-16.2,13.85-24.17,2.43-4.07,5.83-5.15,10.63-3.77C780,75.93,789.4,84.83,795.31,97.37a20.7,20.7,0,0,1,1,12.59A71,71,0,0,1,777,144.3c-4.77,4.81-7.57,5.06-13.25,1.68-8.15-4.83-16.43-9.48-24.34-14.67C736.83,129.63,735.24,126.48,732.89,123.63Z"/>
    <path class="cls-2"
          d="M721.09,113.4c-1.55,11.74-6.63,21.57-13.13,30.73a88.84,88.84,0,0,1-8.18,9.4c-3.17,3.32-6.94,3.74-10.88,1.42q-13.32-7.84-26.58-15.79c-3.56-2.13-4.85-5.3-4.08-9.36,3.35-17.54,11.72-32.72,22.09-47,2.07-2.83,4.6-3.78,8.24-2.89,15.23,3.76,25.31,13.29,31.31,27.45C720.7,109.34,720.74,111.59,721.09,113.4Z"/>
    <path class="cls-2"
          d="M279.2,287.38c-.67,2.73-.7,5.86-2.12,8.11-5.54,8.81-11.05,17.73-17.51,25.86-4.45,5.59-8.49,5.07-14.34.88-6.34-4.54-12.84-8.89-19.39-13.12-5.23-3.37-6.2-5.17-4.38-11.11,4.51-14.77,12-28,20.9-40.56,2-2.77,4.37-3.45,7.8-2.69C264.87,258,279.21,274.11,279.2,287.38Z"/>
    <path class="cls-2"
          d="M151.26,357c-.72,2.88-.77,6.18-2.27,8.57-5.43,8.69-10.83,17.5-17.25,25.45-4.75,5.88-8.54,5.33-14.7.9-6.34-4.55-12.79-9-19.42-13.07-4.34-2.68-5.85-5.82-4.27-10.81,4.67-14.73,12-28.07,21-40.52a8.11,8.11,0,0,1,5.67-3.1C133.74,324.5,151.16,343,151.26,357Z"/>
    <path class="cls-1"
          d="M369.21,269.83c9.28-21.72,20.24-41,34.87-58,1.26-1.47,4.08-2.07,6.23-2.23,16.93-1.24,33.88-2.21,50.81-3.38,26.89-1.85,53.78-3.68,80.65-5.8,4-.31,6,.68,7.62,4.29,5.85,12.77,7.4,26.11,6.18,39.94-.28,3.27-1.78,4.27-5,4.66-36.8,4.43-73.56,9.27-110.38,13.54C416.89,265.53,393.53,267.46,369.21,269.83Z"/>
    <path class="cls-2"
          d="M357.57,389.75c2.79-7.59,5-15.44,8.53-22.69,3.81-7.9,8.71-15.28,13.27-22.8,2.27-3.74,5.47-4.59,9.84-3.38,13.46,3.72,22.73,12.31,28.41,24.61,1.66,3.58,1.8,8.52.94,12.47-2.79,13-9.54,24-18.85,33.43-4.46,4.49-7,4.66-12.4,1.52-8-4.72-16-9.56-24-14.28-3.28-1.94-5.49-4.36-4.55-8.59Z"/>
</svg>
